<svg width="215" height="92" viewBox="0 0 215 92" fill="none" xmlns="http://www.w3.org/2000/svg">
<path d="M18.0063 2.38518C18.0063 3.70248 16.9416 4.77036 15.6282 4.77036C14.3148 4.77036 13.2501 3.70248 13.2501 2.38518C13.2501 1.06788 14.3148 0 15.6282 0C16.9416 0 18.0063 1.06788 18.0063 2.38518Z" fill="#E47450"/>
<path d="M44.5052 2.38518C44.5052 3.70248 43.4405 4.77036 42.1271 4.77036C40.8137 4.77036 39.749 3.70248 39.749 2.38518C39.749 1.06788 40.8137 0 42.1271 0C43.4405 0 44.5052 1.06788 44.5052 2.38518Z" fill="#E47450"/>
<path d="M71.0041 2.38518C71.0041 3.70248 69.9394 4.77036 68.626 4.77036C67.3126 4.77036 66.2479 3.70248 66.2479 2.38518C66.2479 1.06788 67.3126 0 68.626 0C69.9394 0 71.0041 1.06788 71.0041 2.38518Z" fill="#E47450"/>
<path d="M97.503 2.38518C97.503 3.70248 96.4383 4.77036 95.1249 4.77036C93.8115 4.77036 92.7468 3.70248 92.7468 2.38518C92.7468 1.06788 93.8115 0 95.1249 0C96.4383 0 97.503 1.06788 97.503 2.38518Z" fill="#E47450"/>
<path d="M124.003 2.38518C124.003 3.70248 122.938 4.77036 121.625 4.77036C120.312 4.77036 119.247 3.70248 119.247 2.38518C119.247 1.06788 120.312 0 121.625 0C122.938 0 124.003 1.06788 124.003 2.38518Z" fill="#E47450"/>
<path d="M150.502 2.38518C150.502 3.70248 149.437 4.77036 148.124 4.77036C146.811 4.77036 145.746 3.70248 145.746 2.38518C145.746 1.06788 146.811 0 148.124 0C149.437 0 150.502 1.06788 150.502 2.38518Z" fill="#E47450"/>
<path d="M177.001 2.38518C177.001 3.70248 175.936 4.77036 174.623 4.77036C173.309 4.77036 172.245 3.70248 172.245 2.38518C172.245 1.06788 173.309 0 174.623 0C175.936 0 177.001 1.06788 177.001 2.38518Z" fill="#E47450"/>
<path d="M203.5 2.38518C203.5 3.70248 202.435 4.77036 201.122 4.77036C199.808 4.77036 198.744 3.70248 198.744 2.38518C198.744 1.06788 199.808 0 201.122 0C202.435 0 203.5 1.06788 203.5 2.38518Z" fill="#E47450"/>
<path d="M230 2.38518C230 3.70248 228.935 4.77036 227.622 4.77036C226.308 4.77036 225.244 3.70248 225.244 2.38518C225.244 1.06788 226.308 0 227.622 0C228.935 0 230 1.06788 230 2.38518Z" fill="#E47450"/>
<path d="M18.0063 46C18.0063 47.3173 16.9416 48.3852 15.6282 48.3852C14.3148 48.3852 13.2501 47.3173 13.2501 46C13.2501 44.6827 14.3148 43.6148 15.6282 43.6148C16.9416 43.6148 18.0063 44.6827 18.0063 46Z" fill="#E47450"/>
<path d="M44.5052 46C44.5052 47.3173 43.4405 48.3852 42.1271 48.3852C40.8137 48.3852 39.749 47.3173 39.749 46C39.749 44.6827 40.8137 43.6148 42.1271 43.6148C43.4405 43.6148 44.5052 44.6827 44.5052 46Z" fill="#E47450"/>
<path d="M71.0041 46C71.0041 47.3173 69.9394 48.3852 68.626 48.3852C67.3126 48.3852 66.2479 47.3173 66.2479 46C66.2479 44.6827 67.3126 43.6148 68.626 43.6148C69.9394 43.6148 71.0041 44.6827 71.0041 46Z" fill="#E47450"/>
<path d="M97.503 46C97.503 47.3173 96.4383 48.3852 95.1249 48.3852C93.8115 48.3852 92.7468 47.3173 92.7468 46C92.7468 44.6827 93.8115 43.6148 95.1249 43.6148C96.4383 43.6148 97.503 44.6827 97.503 46Z" fill="#E47450"/>
<path d="M124.003 46C124.003 47.3173 122.938 48.3852 121.625 48.3852C120.312 48.3852 119.247 47.3173 119.247 46C119.247 44.6827 120.312 43.6148 121.625 43.6148C122.938 43.6148 124.003 44.6827 124.003 46Z" fill="#E47450"/>
<path d="M150.502 46C150.502 47.3173 149.437 48.3852 148.124 48.3852C146.811 48.3852 145.746 47.3173 145.746 46C145.746 44.6827 146.811 43.6148 148.124 43.6148C149.437 43.6148 150.502 44.6827 150.502 46Z" fill="#E47450"/>
<path d="M177.001 46C177.001 47.3173 175.936 48.3852 174.623 48.3852C173.309 48.3852 172.245 47.3173 172.245 46C172.245 44.6827 173.309 43.6148 174.623 43.6148C175.936 43.6148 177.001 44.6827 177.001 46Z" fill="#E47450"/>
<path d="M203.5 46C203.5 47.3173 202.435 48.3852 201.122 48.3852C199.808 48.3852 198.744 47.3173 198.744 46C198.744 44.6827 199.808 43.6148 201.122 43.6148C202.435 43.6148 203.5 44.6827 203.5 46Z" fill="#E47450"/>
<path d="M230 46C230 47.3173 228.935 48.3852 227.622 48.3852C226.308 48.3852 225.244 47.3173 225.244 46C225.244 44.6827 226.308 43.6148 227.622 43.6148C228.935 43.6148 230 44.6827 230 46Z" fill="#E47450"/>
<path d="M18.0063 89.6148C18.0063 90.9321 16.9416 92 15.6282 92C14.3148 92 13.2501 90.9321 13.2501 89.6148C13.2501 88.2975 14.3148 87.2296 15.6282 87.2296C16.9416 87.2296 18.0063 88.2975 18.0063 89.6148Z" fill="#E47450"/>
<path d="M44.5052 89.6148C44.5052 90.9321 43.4405 92 42.1271 92C40.8137 92 39.749 90.9321 39.749 89.6148C39.749 88.2975 40.8137 87.2296 42.1271 87.2296C43.4405 87.2296 44.5052 88.2975 44.5052 89.6148Z" fill="#E47450"/>
<path d="M71.0041 89.6148C71.0041 90.9321 69.9394 92 68.626 92C67.3126 92 66.2479 90.9321 66.2479 89.6148C66.2479 88.2975 67.3126 87.2296 68.626 87.2296C69.9394 87.2296 71.0041 88.2975 71.0041 89.6148Z" fill="#E47450"/>
<path d="M97.503 89.6148C97.503 90.9321 96.4383 92 95.1249 92C93.8115 92 92.7468 90.9321 92.7468 89.6148C92.7468 88.2975 93.8115 87.2296 95.1249 87.2296C96.4383 87.2296 97.503 88.2975 97.503 89.6148Z" fill="#E47450"/>
<path d="M124.003 89.6148C124.003 90.9321 122.938 92 121.625 92C120.312 92 119.247 90.9321 119.247 89.6148C119.247 88.2975 120.312 87.2296 121.625 87.2296C122.938 87.2296 124.003 88.2975 124.003 89.6148Z" fill="#E47450"/>
<path d="M150.502 89.6148C150.502 90.9321 149.437 92 148.124 92C146.811 92 145.746 90.9321 145.746 89.6148C145.746 88.2975 146.811 87.2296 148.124 87.2296C149.437 87.2296 150.502 88.2975 150.502 89.6148Z" fill="#E47450"/>
<path d="M177.001 89.6148C177.001 90.9321 175.936 92 174.623 92C173.309 92 172.245 90.9321 172.245 89.6148C172.245 88.2975 173.309 87.2296 174.623 87.2296C175.936 87.2296 177.001 88.2975 177.001 89.6148Z" fill="#E47450"/>
<path d="M203.5 89.6148C203.5 90.9321 202.435 92 201.122 92C199.808 92 198.744 90.9321 198.744 89.6148C198.744 88.2975 199.808 87.2296 201.122 87.2296C202.435 87.2296 203.5 88.2975 203.5 89.6148Z" fill="#E47450"/>
<path d="M230 89.6148C230 90.9321 228.935 92 227.622 92C226.308 92 225.244 90.9321 225.244 89.6148C225.244 88.2975 226.308 87.2296 227.622 87.2296C228.935 87.2296 230 88.2975 230 89.6148Z" fill="#E47450"/>
<path d="M4.75627 24.1924C4.75627 25.5097 3.69154 26.5776 2.37813 26.5776C1.06473 26.5776 0 25.5097 0 24.1924C0 22.8751 1.06473 21.8073 2.37813 21.8073C3.69154 21.8073 4.75627 22.8751 4.75627 24.1924Z" fill="#E47450"/>
<path d="M31.2552 24.1924C31.2552 25.5097 30.1904 26.5776 28.877 26.5776C27.5636 26.5776 26.4989 25.5097 26.4989 24.1924C26.4989 22.8751 27.5636 21.8073 28.877 21.8073C30.1904 21.8073 31.2552 22.8751 31.2552 24.1924Z" fill="#E47450"/>
<path d="M57.7541 24.1924C57.7541 25.5097 56.6893 26.5776 55.3759 26.5776C54.0625 26.5776 52.9978 25.5097 52.9978 24.1924C52.9978 22.8751 54.0625 21.8073 55.3759 21.8073C56.6893 21.8073 57.7541 22.8751 57.7541 24.1924Z" fill="#E47450"/>
<path d="M84.2542 24.1924C84.2542 25.5097 83.1895 26.5776 81.8761 26.5776C80.5627 26.5776 79.4979 25.5097 79.4979 24.1924C79.4979 22.8751 80.5627 21.8073 81.8761 21.8073C83.1895 21.8073 84.2542 22.8751 84.2542 24.1924Z" fill="#E47450"/>
<path d="M110.753 24.1924C110.753 25.5097 109.688 26.5776 108.375 26.5776C107.062 26.5776 105.997 25.5097 105.997 24.1924C105.997 22.8751 107.062 21.8073 108.375 21.8073C109.688 21.8073 110.753 22.8751 110.753 24.1924Z" fill="#E47450"/>
<path d="M137.252 24.1924C137.252 25.5097 136.187 26.5776 134.874 26.5776C133.56 26.5776 132.496 25.5097 132.496 24.1924C132.496 22.8751 133.56 21.8073 134.874 21.8073C136.187 21.8073 137.252 22.8751 137.252 24.1924Z" fill="#E47450"/>
<path d="M163.751 24.1924C163.751 25.5097 162.686 26.5776 161.373 26.5776C160.059 26.5776 158.995 25.5097 158.995 24.1924C158.995 22.8751 160.059 21.8073 161.373 21.8073C162.686 21.8073 163.751 22.8751 163.751 24.1924Z" fill="#E47450"/>
<path d="M190.251 24.1924C190.251 25.5097 189.186 26.5776 187.873 26.5776C186.559 26.5776 185.495 25.5097 185.495 24.1924C185.495 22.8751 186.559 21.8073 187.873 21.8073C189.186 21.8073 190.251 22.8751 190.251 24.1924Z" fill="#E47450"/>
<path d="M216.75 24.1924C216.75 25.5097 215.685 26.5776 214.372 26.5776C213.058 26.5776 211.994 25.5097 211.994 24.1924C211.994 22.8751 213.058 21.8073 214.372 21.8073C215.685 21.8073 216.75 22.8751 216.75 24.1924Z" fill="#E47450"/>
<path d="M4.75627 67.8073C4.75627 69.1246 3.69154 70.1924 2.37813 70.1924C1.06473 70.1924 0 69.1246 0 67.8073C0 66.49 1.06473 65.4221 2.37813 65.4221C3.69154 65.4221 4.75627 66.49 4.75627 67.8073Z" fill="#E47450"/>
<path d="M31.2552 67.8073C31.2552 69.1246 30.1904 70.1924 28.877 70.1924C27.5636 70.1924 26.4989 69.1246 26.4989 67.8073C26.4989 66.49 27.5636 65.4221 28.877 65.4221C30.1904 65.4221 31.2552 66.49 31.2552 67.8073Z" fill="#E47450"/>
<path d="M57.7541 67.8073C57.7541 69.1246 56.6893 70.1924 55.3759 70.1924C54.0625 70.1924 52.9978 69.1246 52.9978 67.8073C52.9978 66.49 54.0625 65.4221 55.3759 65.4221C56.6893 65.4221 57.7541 66.49 57.7541 67.8073Z" fill="#E47450"/>
<path d="M84.2542 67.8073C84.2542 69.1246 83.1895 70.1924 81.8761 70.1924C80.5627 70.1924 79.4979 69.1246 79.4979 67.8073C79.4979 66.49 80.5627 65.4221 81.8761 65.4221C83.1895 65.4221 84.2542 66.49 84.2542 67.8073Z" fill="#E47450"/>
<path d="M110.753 67.8073C110.753 69.1246 109.688 70.1924 108.375 70.1924C107.062 70.1924 105.997 69.1246 105.997 67.8073C105.997 66.49 107.062 65.4221 108.375 65.4221C109.688 65.4221 110.753 66.49 110.753 67.8073Z" fill="#E47450"/>
<path d="M137.252 67.8073C137.252 69.1246 136.187 70.1924 134.874 70.1924C133.56 70.1924 132.496 69.1246 132.496 67.8073C132.496 66.49 133.56 65.4221 134.874 65.4221C136.187 65.4221 137.252 66.49 137.252 67.8073Z" fill="#E47450"/>
<path d="M163.751 67.8073C163.751 69.1246 162.686 70.1924 161.373 70.1924C160.059 70.1924 158.995 69.1246 158.995 67.8073C158.995 66.49 160.059 65.4221 161.373 65.4221C162.686 65.4221 163.751 66.49 163.751 67.8073Z" fill="#E47450"/>
<path d="M190.251 67.8073C190.251 69.1246 189.186 70.1924 187.873 70.1924C186.559 70.1924 185.495 69.1246 185.495 67.8073C185.495 66.49 186.559 65.4221 187.873 65.4221C189.186 65.4221 190.251 66.49 190.251 67.8073Z" fill="#E47450"/>
<path d="M216.75 67.8073C216.75 69.1246 215.685 70.1924 214.372 70.1924C213.058 70.1924 211.994 69.1246 211.994 67.8073C211.994 66.49 213.058 65.4221 214.372 65.4221C215.685 65.4221 216.75 66.49 216.75 67.8073Z" fill="#E47450"/>
</svg>
