<svg width="10" height="6" viewBox="0 0 10 6" fill="none" xmlns="http://www.w3.org/2000/svg">
<path d="M0.860057 1.05999C0.765401 0.966107 0.712158 0.838309 0.712158 0.704991C0.712158 0.571672 0.765401 0.443874 0.860057 0.349991L1.06006 0.149991C1.15413 0.0523322 1.28447 -0.00197559 1.42006 -9.44494e-06H8.58006C8.71564 -0.00197559 8.84598 0.0523322 8.94006 0.149991L9.14006 0.349991C9.23471 0.443874 9.28796 0.571672 9.28796 0.704991C9.28796 0.838309 9.23471 0.966107 9.14006 1.05999L5.35006 4.84999C5.25932 4.94667 5.13264 5.00151 5.00006 5.00151C4.86747 5.00151 4.74079 4.94667 4.65006 4.84999L0.860057 1.05999Z" fill="#DFA94E"/>
</svg>
