<svg width="147" height="144" viewBox="0 0 147 144" fill="none" xmlns="http://www.w3.org/2000/svg">
<path d="M19.2842 48.5416C19.2842 49.9448 18.1439 51.0823 16.7372 51.0823C15.3305 51.0823 14.1901 49.9448 14.1901 48.5416C14.1901 47.1384 15.3305 46.0009 16.7372 46.0009C18.1439 46.0009 19.2842 47.1384 19.2842 48.5416Z" fill="#45B1F3"/>
<path d="M47.666 48.5416C47.666 49.9448 46.5257 51.0823 45.119 51.0823C43.7123 51.0823 42.5719 49.9448 42.5719 48.5416C42.5719 47.1384 43.7123 46.0009 45.119 46.0009C46.5257 46.0009 47.666 47.1384 47.666 48.5416Z" fill="#45B1F3"/>
<path d="M76.0478 48.5416C76.0478 49.9448 74.9075 51.0823 73.5008 51.0823C72.0941 51.0823 70.9537 49.9448 70.9537 48.5416C70.9537 47.1384 72.0941 46.0009 73.5008 46.0009C74.9075 46.0009 76.0478 47.1384 76.0478 48.5416Z" fill="#45B1F3"/>
<path d="M104.428 48.5416C104.428 49.9448 103.288 51.0823 101.881 51.0823C100.474 51.0823 99.334 49.9448 99.334 48.5416C99.334 47.1384 100.474 46.0009 101.881 46.0009C103.288 46.0009 104.428 47.1384 104.428 48.5416Z" fill="#45B1F3"/>
<path d="M132.811 48.5416C132.811 49.9448 131.671 51.0823 130.264 51.0823C128.858 51.0823 127.717 49.9448 127.717 48.5416C127.717 47.1384 128.858 46.0009 130.264 46.0009C131.671 46.0009 132.811 47.1384 132.811 48.5416Z" fill="#45B1F3"/>
<path d="M19.2842 95.0009C19.2842 96.4042 18.1439 97.5417 16.7372 97.5417C15.3305 97.5417 14.1901 96.4042 14.1901 95.0009C14.1901 93.5977 15.3305 92.4602 16.7372 92.4602C18.1439 92.4602 19.2842 93.5977 19.2842 95.0009Z" fill="#45B1F3"/>
<path d="M47.666 95.0009C47.666 96.4042 46.5257 97.5417 45.119 97.5417C43.7123 97.5417 42.5719 96.4042 42.5719 95.0009C42.5719 93.5977 43.7123 92.4602 45.119 92.4602C46.5257 92.4602 47.666 93.5977 47.666 95.0009Z" fill="#45B1F3"/>
<path d="M76.0478 95.0009C76.0478 96.4042 74.9075 97.5417 73.5008 97.5417C72.0941 97.5417 70.9537 96.4042 70.9537 95.0009C70.9537 93.5977 72.0941 92.4602 73.5008 92.4602C74.9075 92.4602 76.0478 93.5977 76.0478 95.0009Z" fill="#45B1F3"/>
<path d="M104.428 95.0009C104.428 96.4042 103.288 97.5417 101.881 97.5417C100.474 97.5417 99.334 96.4042 99.334 95.0009C99.334 93.5977 100.474 92.4602 101.881 92.4602C103.288 92.4602 104.428 93.5977 104.428 95.0009Z" fill="#45B1F3"/>
<path d="M132.811 95.0009C132.811 96.4042 131.671 97.5417 130.264 97.5417C128.858 97.5417 127.717 96.4042 127.717 95.0009C127.717 93.5977 128.858 92.4602 130.264 92.4602C131.671 92.4602 132.811 93.5977 132.811 95.0009Z" fill="#45B1F3"/>
<path d="M19.2842 141.46C19.2842 142.863 18.1439 144.001 16.7372 144.001C15.3305 144.001 14.1901 142.863 14.1901 141.46C14.1901 140.057 15.3305 138.919 16.7372 138.919C18.1439 138.919 19.2842 140.057 19.2842 141.46Z" fill="#45B1F3"/>
<path d="M47.666 141.46C47.666 142.863 46.5257 144.001 45.119 144.001C43.7123 144.001 42.5719 142.863 42.5719 141.46C42.5719 140.057 43.7123 138.919 45.119 138.919C46.5257 138.919 47.666 140.057 47.666 141.46Z" fill="#45B1F3"/>
<path d="M76.0478 141.46C76.0478 142.863 74.9075 144.001 73.5008 144.001C72.0941 144.001 70.9537 142.863 70.9537 141.46C70.9537 140.057 72.0941 138.919 73.5008 138.919C74.9075 138.919 76.0478 140.057 76.0478 141.46Z" fill="#45B1F3"/>
<path d="M104.428 141.46C104.428 142.863 103.288 144.001 101.881 144.001C100.474 144.001 99.334 142.863 99.334 141.46C99.334 140.057 100.474 138.919 101.881 138.919C103.288 138.919 104.428 140.057 104.428 141.46Z" fill="#45B1F3"/>
<path d="M132.811 141.46C132.811 142.863 131.671 144.001 130.264 144.001C128.858 144.001 127.717 142.863 127.717 141.46C127.717 140.057 128.858 138.919 130.264 138.919C131.671 138.919 132.811 140.057 132.811 141.46Z" fill="#45B1F3"/>
<path d="M5.09411 71.7711C5.09411 73.1743 3.95375 74.3118 2.54705 74.3118C1.14035 74.3118 0 73.1743 0 71.7711C0 70.3679 1.14035 69.2303 2.54705 69.2303C3.95375 69.2303 5.09411 70.3679 5.09411 71.7711Z" fill="#45B1F3"/>
<path d="M33.4759 71.7711C33.4759 73.1743 32.3355 74.3118 30.9288 74.3118C29.5221 74.3118 28.3818 73.1743 28.3818 71.7711C28.3818 70.3679 29.5221 69.2303 30.9288 69.2303C32.3355 69.2303 33.4759 70.3679 33.4759 71.7711Z" fill="#45B1F3"/>
<path d="M61.8562 71.7711C61.8562 73.1743 60.7158 74.3118 59.3091 74.3118C57.9024 74.3118 56.7621 73.1743 56.7621 71.7711C56.7621 70.3679 57.9024 69.2303 59.3091 69.2303C60.7158 69.2303 61.8562 70.3679 61.8562 71.7711Z" fill="#45B1F3"/>
<path d="M90.2395 71.7711C90.2395 73.1743 89.0991 74.3118 87.6924 74.3118C86.2857 74.3118 85.1454 73.1743 85.1454 71.7711C85.1454 70.3679 86.2857 69.2303 87.6924 69.2303C89.0991 69.2303 90.2395 70.3679 90.2395 71.7711Z" fill="#45B1F3"/>
<path d="M118.62 71.7711C118.62 73.1743 117.479 74.3118 116.073 74.3118C114.666 74.3118 113.526 73.1743 113.526 71.7711C113.526 70.3679 114.666 69.2303 116.073 69.2303C117.479 69.2303 118.62 70.3679 118.62 71.7711Z" fill="#45B1F3"/>
<path d="M147 71.7711C147 73.1743 145.86 74.3118 144.453 74.3118C143.046 74.3118 141.906 73.1743 141.906 71.7711C141.906 70.3679 143.046 69.2303 144.453 69.2303C145.86 69.2303 147 70.3679 147 71.7711Z" fill="#45B1F3"/>
<path d="M5.09411 118.23C5.09411 119.634 3.95375 120.771 2.54705 120.771C1.14035 120.771 0 119.634 0 118.23C0 116.827 1.14035 115.69 2.54705 115.69C3.95375 115.69 5.09411 116.827 5.09411 118.23Z" fill="#45B1F3"/>
<path d="M33.4759 118.23C33.4759 119.634 32.3355 120.771 30.9288 120.771C29.5221 120.771 28.3818 119.634 28.3818 118.23C28.3818 116.827 29.5221 115.69 30.9288 115.69C32.3355 115.69 33.4759 116.827 33.4759 118.23Z" fill="#45B1F3"/>
<path d="M61.8562 118.23C61.8562 119.634 60.7158 120.771 59.3091 120.771C57.9024 120.771 56.7621 119.634 56.7621 118.23C56.7621 116.827 57.9024 115.69 59.3091 115.69C60.7158 115.69 61.8562 116.827 61.8562 118.23Z" fill="#45B1F3"/>
<path d="M90.2395 118.23C90.2395 119.634 89.0991 120.771 87.6924 120.771C86.2857 120.771 85.1454 119.634 85.1454 118.23C85.1454 116.827 86.2857 115.69 87.6924 115.69C89.0991 115.69 90.2395 116.827 90.2395 118.23Z" fill="#45B1F3"/>
<path d="M118.62 118.23C118.62 119.634 117.479 120.771 116.073 120.771C114.666 120.771 113.526 119.634 113.526 118.23C113.526 116.827 114.666 115.69 116.073 115.69C117.479 115.69 118.62 116.827 118.62 118.23Z" fill="#45B1F3"/>
<path d="M147 118.23C147 119.634 145.86 120.771 144.453 120.771C143.046 120.771 141.906 119.634 141.906 118.23C141.906 116.827 143.046 115.69 144.453 115.69C145.86 115.69 147 116.827 147 118.23Z" fill="#45B1F3"/>
<path d="M19.2842 2.54074C19.2842 3.94395 18.1439 5.08148 16.7372 5.08148C15.3305 5.08148 14.1901 3.94395 14.1901 2.54074C14.1901 1.13753 15.3305 0 16.7372 0C18.1439 0 19.2842 1.13753 19.2842 2.54074Z" fill="#45B1F3"/>
<path d="M47.666 2.54074C47.666 3.94395 46.5257 5.08148 45.119 5.08148C43.7123 5.08148 42.5719 3.94395 42.5719 2.54074C42.5719 1.13753 43.7123 0 45.119 0C46.5257 0 47.666 1.13753 47.666 2.54074Z" fill="#45B1F3"/>
<path d="M76.0478 2.54074C76.0478 3.94395 74.9075 5.08148 73.5008 5.08148C72.0941 5.08148 70.9537 3.94395 70.9537 2.54074C70.9537 1.13753 72.0941 0 73.5008 0C74.9075 0 76.0478 1.13753 76.0478 2.54074Z" fill="#45B1F3"/>
<path d="M104.428 2.54074C104.428 3.94395 103.288 5.08148 101.881 5.08148C100.474 5.08148 99.334 3.94395 99.334 2.54074C99.334 1.13753 100.474 0 101.881 0C103.288 0 104.428 1.13753 104.428 2.54074Z" fill="#45B1F3"/>
<path d="M132.811 2.54074C132.811 3.94395 131.671 5.08148 130.264 5.08148C128.858 5.08148 127.717 3.94395 127.717 2.54074C127.717 1.13753 128.858 0 130.264 0C131.671 0 132.811 1.13753 132.811 2.54074Z" fill="#45B1F3"/>
<path d="M5.09411 25.7702C5.09411 27.1734 3.95375 28.311 2.54705 28.311C1.14035 28.311 0 27.1734 0 25.7702C0 24.367 1.14035 23.2295 2.54705 23.2295C3.95375 23.2295 5.09411 24.367 5.09411 25.7702Z" fill="#45B1F3"/>
<path d="M33.4759 25.7702C33.4759 27.1734 32.3355 28.311 30.9288 28.311C29.5221 28.311 28.3818 27.1734 28.3818 25.7702C28.3818 24.367 29.5221 23.2295 30.9288 23.2295C32.3355 23.2295 33.4759 24.367 33.4759 25.7702Z" fill="#45B1F3"/>
<path d="M61.8562 25.7702C61.8562 27.1734 60.7158 28.311 59.3091 28.311C57.9024 28.311 56.7621 27.1734 56.7621 25.7702C56.7621 24.367 57.9024 23.2295 59.3091 23.2295C60.7158 23.2295 61.8562 24.367 61.8562 25.7702Z" fill="#45B1F3"/>
<path d="M90.2395 25.7702C90.2395 27.1734 89.0991 28.311 87.6924 28.311C86.2857 28.311 85.1454 27.1734 85.1454 25.7702C85.1454 24.367 86.2857 23.2295 87.6924 23.2295C89.0991 23.2295 90.2395 24.367 90.2395 25.7702Z" fill="#45B1F3"/>
<path d="M118.62 25.7702C118.62 27.1734 117.479 28.311 116.073 28.311C114.666 28.311 113.526 27.1734 113.526 25.7702C113.526 24.367 114.666 23.2295 116.073 23.2295C117.479 23.2295 118.62 24.367 118.62 25.7702Z" fill="#45B1F3"/>
<path d="M147 25.7702C147 27.1734 145.86 28.311 144.453 28.311C143.046 28.311 141.906 27.1734 141.906 25.7702C141.906 24.367 143.046 23.2295 144.453 23.2295C145.86 23.2295 147 24.367 147 25.7702Z" fill="#45B1F3"/>
</svg>
