<svg width="73" height="32" viewBox="0 0 73 32" fill="none" xmlns="http://www.w3.org/2000/svg">
<path d="M68.2067 31.7856H5.11189C2.65661 31.7856 0.656738 29.7857 0.656738 27.3304V4.66853C0.656738 2.21325 2.65661 0.213379 5.11189 0.213379H68.2067C70.662 0.213379 72.6619 2.21325 72.6619 4.66853V27.3304C72.6619 29.7758 70.6521 31.7856 68.2067 31.7856Z" fill="url(#paint0_linear)"/>
<path d="M68.2074 31.8852H5.1125C2.59782 31.8852 0.55835 29.8457 0.55835 27.331V4.66915C0.55835 2.15446 2.59782 0.11499 5.1125 0.11499H68.2074C70.722 0.11499 72.7615 2.15446 72.7615 4.66915V27.331C72.7615 29.8358 70.7121 31.8852 68.2074 31.8852ZM5.1125 0.312997C2.70672 0.312997 0.756356 2.26336 0.756356 4.66915V27.331C0.756356 29.7368 2.70672 31.6872 5.1125 31.6872H68.2074C70.6131 31.6872 72.5635 29.7368 72.5635 27.331V4.66915C72.5635 2.26336 70.6131 0.312997 68.2074 0.312997H5.1125Z" fill="#A57532"/>
<path d="M67.1875 23.5393H5.92425C3.74617 23.5393 1.96411 21.7573 1.96411 19.5792V5.4118C1.96411 3.23372 3.74617 1.45166 5.92425 1.45166H67.1875C69.3656 1.45166 71.1477 3.23372 71.1477 5.4118V19.5792C71.1477 21.7573 69.3656 23.5393 67.1875 23.5393Z" fill="url(#paint1_linear)"/>
<path d="M9.78563 29.281H8.79559L8.39958 28.4197H6.56802L6.1918 29.281H5.21167L6.98383 25.4595H7.95406L9.78563 29.281ZM8.09267 27.7663L7.46895 26.3505L6.85513 27.7663H8.09267Z" fill="black"/>
<path d="M10.2705 29.2813V25.4597H11.7457C12.3001 25.4597 12.6565 25.4795 12.8248 25.5191C13.0921 25.5785 13.3198 25.7072 13.498 25.8953C13.6762 26.0834 13.7653 26.3408 13.7653 26.6379C13.7653 26.9151 13.6861 27.1428 13.5376 27.3309C13.3891 27.519 13.201 27.6477 12.9733 27.7269C12.7456 27.8061 12.3496 27.8358 11.7952 27.8358H11.1912V29.2813H10.2705ZM11.1912 26.1131V27.2022H11.6962C12.0427 27.2022 12.2704 27.1824 12.3892 27.1527C12.508 27.123 12.6169 27.0636 12.6961 26.9745C12.7753 26.8854 12.8149 26.7864 12.8149 26.6577C12.8149 26.529 12.7753 26.4201 12.6961 26.3408C12.6169 26.2517 12.5179 26.1923 12.3991 26.1626C12.2803 26.1329 12.0328 26.123 11.6467 26.123H11.1912V26.1131Z" fill="black"/>
<path d="M14.5178 29.2813V25.4597H15.993C16.5474 25.4597 16.9038 25.4795 17.0721 25.5191C17.3394 25.5785 17.5671 25.7072 17.7453 25.8953C17.9235 26.0834 18.0126 26.3408 18.0126 26.6379C18.0126 26.9151 17.9334 27.1428 17.7849 27.3309C17.6364 27.519 17.4483 27.6477 17.2206 27.7269C16.9929 27.8061 16.5969 27.8358 16.0425 27.8358H15.4386V29.2813H14.5178ZM15.4287 26.1131V27.2022H15.9336C16.2801 27.2022 16.5078 27.1824 16.6266 27.1527C16.7454 27.123 16.8543 27.0636 16.9335 26.9745C17.0127 26.8854 17.0523 26.7864 17.0523 26.6577C17.0523 26.529 17.0127 26.4201 16.9335 26.3408C16.8543 26.2517 16.7553 26.1923 16.6365 26.1626C16.5177 26.1329 16.2702 26.123 15.8841 26.123H15.4287V26.1131Z" fill="black"/>
<path d="M18.7654 29.2813V25.4597H20.7058C21.2009 25.4597 21.5573 25.4894 21.7652 25.5587C21.9731 25.628 22.1513 25.7468 22.2899 25.9151C22.4285 26.0834 22.4978 26.2913 22.4978 26.5191C22.4978 26.8161 22.3889 27.0537 22.181 27.2418C21.9731 27.42 21.6761 27.5388 21.29 27.5883C21.488 27.6873 21.6464 27.7962 21.7751 27.9051C21.9038 28.0239 22.082 28.2318 22.2998 28.5288L22.8542 29.2714H21.7553L21.092 28.4397C20.8544 28.1427 20.686 27.9546 20.6068 27.8754C20.5177 27.7962 20.4286 27.7467 20.3296 27.717C20.2306 27.6873 20.0821 27.6774 19.8643 27.6774H19.6762V29.2714H18.7654V29.2813ZM19.6762 27.0735H20.3593C20.7752 27.0735 21.0425 27.0636 21.1514 27.0339C21.2603 27.0042 21.3593 26.9547 21.4286 26.8854C21.4979 26.8062 21.5375 26.7072 21.5375 26.5785C21.5375 26.4597 21.4979 26.3606 21.4286 26.2814C21.3593 26.2121 21.2603 26.1527 21.1415 26.1329C21.0524 26.1131 20.8049 26.1032 20.3989 26.1032H19.6762V27.0735Z" fill="black"/>
<path d="M23.1711 27.4005C23.1711 26.9451 23.2701 26.5689 23.4682 26.2719C23.6662 25.9749 23.9236 25.757 24.2404 25.6184C24.5572 25.4699 24.9433 25.4006 25.3888 25.4006C26.0422 25.4006 26.567 25.5689 26.9828 25.9155C27.3887 26.262 27.5966 26.7471 27.5966 27.3807C27.5966 28.0242 27.3788 28.5192 26.9432 28.8757C26.5571 29.1925 26.0422 29.3509 25.3888 29.3509C24.7255 29.3509 24.2107 29.1925 23.8246 28.8757C23.389 28.5192 23.1711 28.0242 23.1711 27.4005ZM24.1117 27.3708C24.1117 27.8064 24.2305 28.143 24.478 28.3608C24.7255 28.5786 25.0225 28.6876 25.3789 28.6876C25.7452 28.6876 26.0422 28.5786 26.2799 28.3608C26.5175 28.143 26.6363 27.8064 26.6363 27.3609C26.6363 26.9154 26.5175 26.5887 26.2898 26.3808C26.062 26.1729 25.7551 26.064 25.3789 26.064C25.0027 26.064 24.6958 26.1729 24.4681 26.3808C24.2305 26.5887 24.1117 26.9253 24.1117 27.3708Z" fill="black"/>
<path d="M29.4771 29.2813L27.8435 25.4597H28.8434L30.0018 28.2912L31.1205 25.4597H32.1007L30.4572 29.2813H29.4771Z" fill="black"/>
<path d="M32.5566 29.2813V25.4597H35.9327V26.1032H33.4675V26.9547H35.7544V27.5982H33.4675V28.6377H36.0119V29.2813H32.5566Z" fill="black"/>
<path d="M36.7939 25.4597H38.4671C38.8928 25.4597 39.2096 25.4894 39.4274 25.5587C39.6452 25.628 39.8432 25.7369 40.0215 25.8854C40.1997 26.0339 40.3482 26.2418 40.4472 26.4894C40.5462 26.7369 40.6056 27.0438 40.6056 27.4101C40.6056 27.7368 40.5561 28.0239 40.4472 28.2714C40.3383 28.5189 40.1997 28.707 40.0314 28.8555C39.863 28.9941 39.665 29.103 39.4274 29.1822C39.1898 29.2516 38.8928 29.2912 38.5166 29.2912H36.7939V25.4597ZM37.7048 26.1131V28.6377H38.3978C38.6948 28.6377 38.9027 28.6179 39.0413 28.5783C39.1799 28.5387 39.2789 28.4793 39.368 28.41C39.4571 28.3308 39.5264 28.212 39.5759 28.0437C39.6353 27.8754 39.6551 27.6576 39.6551 27.3804C39.6551 27.0933 39.6254 26.8755 39.566 26.7072C39.5066 26.5389 39.4175 26.4201 39.2987 26.321C39.1799 26.2319 39.0314 26.1626 38.8631 26.1329C38.7344 26.1131 38.4869 26.1032 38.1206 26.1032H37.7048V26.1131Z" fill="black"/>
<path d="M43.1597 29.2813V25.4597H44.6348C45.1892 25.4597 45.5457 25.4795 45.714 25.5191C45.9813 25.5785 46.209 25.7072 46.3872 25.8953C46.5654 26.0834 46.6545 26.3408 46.6545 26.6379C46.6545 26.9151 46.5753 27.1428 46.4268 27.3309C46.2783 27.519 46.0902 27.6477 45.8625 27.7269C45.6348 27.8061 45.2387 27.8358 44.6843 27.8358H44.0804V29.2813H43.1597ZM44.0804 26.1131V27.2022H44.5853C44.9318 27.2022 45.1595 27.1824 45.2783 27.1527C45.3971 27.123 45.5061 27.0636 45.5754 26.9745C45.6546 26.8854 45.6942 26.7864 45.6942 26.6577C45.6942 26.529 45.6546 26.4201 45.5754 26.3408C45.4962 26.2517 45.3971 26.1923 45.2783 26.1626C45.1595 26.1329 44.912 26.123 44.5259 26.123H44.0804V26.1131Z" fill="black"/>
<path d="M47.2185 27.4005C47.2185 26.9451 47.3175 26.5689 47.5155 26.2719C47.7135 25.9749 47.9709 25.757 48.2877 25.6184C48.6046 25.4699 48.9907 25.4006 49.4362 25.4006C50.0896 25.4006 50.6242 25.5689 51.0301 25.9155C51.436 26.262 51.644 26.7471 51.644 27.3807C51.644 28.0242 51.4262 28.5192 50.9905 28.8757C50.6044 29.1925 50.0896 29.3509 49.4362 29.3509C48.7729 29.3509 48.258 29.1925 47.8719 28.8757C47.4363 28.5192 47.2185 28.0242 47.2185 27.4005ZM48.1689 27.3708C48.1689 27.8064 48.2877 28.143 48.5353 28.3608C48.7828 28.5786 49.0798 28.6876 49.4362 28.6876C49.8025 28.6876 50.0995 28.5786 50.3371 28.3608C50.5747 28.143 50.6935 27.8064 50.6935 27.3609C50.6935 26.9154 50.5747 26.5887 50.347 26.3808C50.1193 26.1729 49.8124 26.064 49.4362 26.064C49.06 26.064 48.7531 26.1729 48.5254 26.3808C48.2976 26.5887 48.1689 26.9253 48.1689 27.3708Z" fill="black"/>
<path d="M52.3572 29.2813V25.4597H54.2976C54.7927 25.4597 55.1491 25.4894 55.357 25.5587C55.5649 25.628 55.7431 25.7468 55.8817 25.9151C56.0203 26.0834 56.0896 26.2913 56.0896 26.5191C56.0896 26.8161 55.9807 27.0537 55.7728 27.2418C55.5649 27.42 55.2679 27.5388 54.8818 27.5883C55.0798 27.6873 55.2382 27.7962 55.3669 27.9051C55.4956 28.0239 55.6738 28.2318 55.8916 28.5288L56.446 29.2714H55.3471L54.6838 28.4397C54.4461 28.1427 54.2778 27.9546 54.1986 27.8754C54.1095 27.7962 54.0204 27.7467 53.9214 27.717C53.8224 27.6873 53.6739 27.6774 53.4561 27.6774H53.268V29.2714H52.3572V29.2813ZM53.2779 27.0735H53.961C54.3768 27.0735 54.6442 27.0636 54.7531 27.0339C54.862 27.0042 54.961 26.9547 55.0303 26.8854C55.0996 26.8062 55.1392 26.7072 55.1392 26.5785C55.1392 26.4597 55.0996 26.3606 55.0303 26.2814C54.961 26.2121 54.862 26.1527 54.7432 26.1329C54.6541 26.1131 54.4065 26.1032 54.0006 26.1032H53.2779V27.0735Z" fill="black"/>
<path d="M57.9804 29.2813V26.1032H56.624V25.4597H60.2476V26.1032H58.9011V29.2813H57.9804Z" fill="black"/>
<path d="M64.4848 29.2813H63.4849L63.0889 28.4199H61.2672L60.891 29.2813H59.9109L61.683 25.4597H62.6533L64.4848 29.2813ZM62.7919 27.7665L62.1583 26.3507L61.5444 27.7665H62.7919Z" fill="black"/>
<path d="M64.9897 29.2818V25.49H65.9105V28.6284H68.1975V29.2719H64.9897V29.2818Z" fill="black"/>
<path d="M13.9238 12.3915H20.6956V12.8073C20.6956 14.53 20.4085 15.8962 19.8442 16.9259C19.1809 18.1139 18.2304 19.0644 16.9929 19.7772C15.7554 20.49 14.4287 20.8464 13.0031 20.8464C10.7161 20.8464 8.75583 20.0247 7.12227 18.3911C5.47882 16.7477 4.66699 14.7676 4.66699 12.4608C4.66699 10.1343 5.49862 8.15418 7.15197 6.51073C8.80533 4.86727 10.8052 4.03564 13.1417 4.03564C14.993 4.03564 16.6464 4.59006 18.1116 5.689C18.7155 6.14442 19.3393 6.76814 19.9828 7.56016L18.6462 8.77791C17.1018 6.74834 15.2801 5.7286 13.1615 5.7286C11.3101 5.7286 9.73596 6.38202 8.43901 7.69877C7.14207 9.03532 6.48865 10.6194 6.48865 12.4905C6.48865 14.2924 7.13217 15.8467 8.42911 17.1635C9.71616 18.4802 11.2507 19.1337 13.0229 19.1337C14.0327 19.1337 15.0029 18.8762 15.9336 18.3713C16.8642 17.8565 17.5869 17.1932 18.0918 16.3616C18.468 15.7576 18.6858 14.9953 18.7452 14.0746H13.9238V12.3915Z" fill="url(#paint2_linear)"/>
<path d="M24.9033 13.4407V20.5492H23.0718V4.30273H26.0221C27.8537 4.30273 29.2199 4.68885 30.1109 5.45117C31.1208 6.3125 31.6257 7.46094 31.6257 8.88659C31.6257 10.2528 31.1802 11.3518 30.299 12.1834C29.4179 13.015 28.1408 13.4407 26.4874 13.4407H24.9033ZM24.9033 11.7775H26.3686C27.4774 11.7775 28.3289 11.5201 28.9427 11.0152C29.5565 10.5102 29.8535 9.78752 29.8535 8.85689C29.8535 7.94606 29.5565 7.24313 28.9724 6.73822C28.3883 6.2333 27.4774 5.98579 26.2399 5.98579H24.9033V11.7775Z" fill="url(#paint3_linear)"/>
<path d="M34.784 4.30293L39.1204 16.4803L44.2091 3.4812L49.0108 16.4902L53.7828 4.31283H55.7529L48.9613 21.381L44.1596 8.40167L39.0412 21.381L32.804 4.31283H34.784V4.30293Z" fill="url(#paint4_linear)"/>
<path d="M64.6331 15.9459H57.693L55.7426 20.5496H53.7725L61.2472 3.521L68.5537 20.5496H66.5538L64.6331 15.9459ZM63.9302 14.2629L61.2274 7.75834L58.4553 14.2629H63.9302Z" fill="url(#paint5_linear)"/>
<path d="M13.1417 4.03516C14.9931 4.03516 16.6464 4.58958 18.1117 5.68852C18.7156 6.14394 19.3393 6.76766 19.9828 7.55968L18.6463 8.77743C17.1018 6.74786 15.2802 5.72812 13.1615 5.72812C11.3101 5.72812 9.73597 6.38154 8.43903 7.69829C7.14209 9.03484 6.48866 10.6189 6.48866 12.4901C6.48866 14.2919 7.13218 15.8463 8.42913 17.163C9.71617 18.4798 11.2507 19.1332 13.0229 19.1332C14.0327 19.1332 15.003 18.8758 15.9336 18.3709C16.8642 17.856 17.5869 17.1927 18.0919 16.3611C18.4681 15.7572 18.6859 14.9948 18.7453 14.0741H13.9238V12.3911H20.6956V12.8069C20.6956 14.5295 20.4085 15.8958 19.8442 16.9254C19.1809 18.1134 18.2305 19.0639 16.9929 19.7767C15.7554 20.4895 14.4287 20.8459 13.0031 20.8459C10.7161 20.8459 8.75584 20.0242 7.12229 18.3907C5.47883 16.7472 4.667 14.7671 4.667 12.4604C4.667 10.1338 5.49863 8.15371 7.15199 6.51025C8.80534 4.85689 10.8052 4.03516 13.1417 4.03516ZM13.1417 3.83716C10.7557 3.83716 8.69644 4.68859 7.01338 6.37164C5.33032 8.0547 4.46899 10.1041 4.46899 12.4703C4.46899 14.8166 5.31052 16.8561 6.97378 18.5293C8.63704 20.2024 10.6666 21.0439 12.9932 21.0439C14.4485 21.0439 15.8247 20.6776 17.082 19.945C18.3394 19.2124 19.3294 18.2323 20.0026 17.0244C20.5867 15.975 20.8838 14.5592 20.8838 12.8069V12.3911V12.193H20.6857H13.9238H13.7258V12.3911V14.0741V14.2721H13.9238H18.5275C18.4483 15.0641 18.2404 15.7374 17.9137 16.2621C17.4285 17.0541 16.7256 17.7075 15.8346 18.2025C14.9337 18.6976 13.9832 18.9451 13.0229 18.9451C11.32 18.9451 9.81518 18.3015 8.57763 17.0343C7.33019 15.7671 6.69657 14.2325 6.69657 12.5C6.69657 10.6981 7.33019 9.13384 8.58753 7.8666C9.84488 6.59935 11.3794 5.95583 13.1714 5.95583C15.2109 5.95583 16.9929 6.95576 18.4978 8.92593L18.6265 9.09424L18.7849 8.94573L20.1214 7.72799L20.26 7.59929L20.1412 7.45078C19.4878 6.64885 18.8443 6.00533 18.2305 5.54002C16.7355 4.41138 15.0228 3.83716 13.1417 3.83716Z" fill="white"/>
<path d="M25.0025 20.6483H22.9729V4.20386H26.0222C27.8736 4.20386 29.2695 4.59987 30.1803 5.3721C31.21 6.25323 31.7248 7.43137 31.7248 8.87682C31.7248 10.2629 31.2694 11.4014 30.3684 12.2528C29.4675 13.1043 28.1607 13.53 26.4875 13.53H25.0025V20.6483ZM23.1808 20.4503H24.8144V13.3419H26.4974C28.1211 13.3419 29.3784 12.9261 30.2397 12.1142C31.1011 11.3024 31.5367 10.2134 31.5367 8.88672C31.5367 7.49077 31.0417 6.36213 30.0615 5.5305C29.1903 4.78798 27.834 4.41176 26.0321 4.41176H23.1808V20.4503ZM26.3687 11.8766H24.8045V5.88692H26.24C27.4874 5.88692 28.428 6.14432 29.0319 6.66904C29.6358 7.19376 29.9427 7.92639 29.9427 8.86692C29.9427 9.81735 29.6259 10.5698 28.9923 11.0945C28.3785 11.6192 27.4874 11.8766 26.3687 11.8766ZM25.0025 11.6786H26.3687C27.4478 11.6786 28.2894 11.4311 28.8735 10.9361C29.4576 10.451 29.7546 9.74805 29.7546 8.85702C29.7546 7.98579 29.4675 7.29276 28.9131 6.81755C28.3488 6.33243 27.4577 6.08492 26.2499 6.08492H25.0124V11.6786H25.0025Z" fill="white"/>
<path d="M39.0409 21.6577L32.665 4.20344H34.853L39.1201 16.1927L44.2088 3.1936L49.0105 16.2026L53.7132 4.20344H55.9011L48.961 21.6478L44.1593 8.67839L39.0409 21.6577ZM44.1593 8.12397L48.961 21.1033L55.6041 4.40144H53.8419L49.0006 16.7571L44.2088 3.75792L39.1201 16.767L34.7144 4.40144H32.9522L39.0508 21.1033L44.1593 8.12397Z" fill="white"/>
<path d="M68.7124 20.648H66.4947L64.574 16.0444H57.7626L55.8122 20.648H53.6243L61.2475 3.27295L68.7124 20.648ZM66.6234 20.45H68.4055L61.2475 3.77787L53.9213 20.45H55.6736L57.624 15.8464H64.6928L66.6234 20.45ZM64.079 14.3613H58.2972L61.2277 7.50039L64.079 14.3613ZM58.6041 14.1633H63.782L61.2277 8.01521L58.6041 14.1633Z" fill="white"/>
<defs>
<linearGradient id="paint0_linear" x1="36.6585" y1="31.7827" x2="36.6585" y2="0.213369" gradientUnits="userSpaceOnUse">
<stop stop-color="#C4A724"/>
<stop offset="0.0661176" stop-color="#E0BE45"/>
<stop offset="0.209" stop-color="#FFF5BE"/>
<stop offset="0.4526" stop-color="#CFA038"/>
<stop offset="0.6143" stop-color="#9C6F2F"/>
<stop offset="0.7925" stop-color="#C8A43A"/>
<stop offset="0.9354" stop-color="#CDBB69"/>
<stop offset="1" stop-color="#C2AA53"/>
</linearGradient>
<linearGradient id="paint1_linear" x1="36.5522" y1="23.5414" x2="36.5522" y2="1.45073" gradientUnits="userSpaceOnUse">
<stop stop-color="#04180A"/>
<stop offset="0.0308561" stop-color="#091E10"/>
<stop offset="0.096575" stop-color="#0F2616"/>
<stop offset="0.1795" stop-color="#112A18"/>
<stop offset="0.3341" stop-color="#112B19"/>
<stop offset="0.5459" stop-color="#16502E"/>
<stop offset="0.6661" stop-color="#056738"/>
<stop offset="0.7361" stop-color="#066537"/>
<stop offset="0.8027" stop-color="#095F33"/>
<stop offset="0.8678" stop-color="#0B542D"/>
<stop offset="0.9319" stop-color="#0B4624"/>
<stop offset="0.9397" stop-color="#0A4423"/>
<stop offset="1" stop-color="#154523"/>
</linearGradient>
<linearGradient id="paint2_linear" x1="12.6782" y1="20.8425" x2="12.6782" y2="4.03768" gradientUnits="userSpaceOnUse">
<stop stop-color="#FAE062"/>
<stop offset="0.3048" stop-color="#9E8336"/>
<stop offset="0.3223" stop-color="#937633"/>
<stop offset="0.3588" stop-color="#7F622B"/>
<stop offset="0.3913" stop-color="#735627"/>
<stop offset="0.4163" stop-color="#6F5225"/>
<stop offset="0.438" stop-color="#805F29"/>
<stop offset="0.4803" stop-color="#B38830"/>
<stop offset="0.5173" stop-color="#F3BD33"/>
<stop offset="0.6542" stop-color="#FCF7DA"/>
<stop offset="0.702" stop-color="#FCF6D6"/>
<stop offset="0.7526" stop-color="#FCF4CD"/>
<stop offset="0.8045" stop-color="#FDF1BD"/>
<stop offset="0.8573" stop-color="#FDEEA7"/>
<stop offset="0.9102" stop-color="#FDE98B"/>
<stop offset="0.9386" stop-color="#FEE779"/>
</linearGradient>
<linearGradient id="paint3_linear" x1="27.3524" y1="20.5501" x2="27.3524" y2="4.30538" gradientUnits="userSpaceOnUse">
<stop stop-color="#FAE062"/>
<stop offset="0.3048" stop-color="#9E8336"/>
<stop offset="0.3223" stop-color="#937633"/>
<stop offset="0.3588" stop-color="#7F622B"/>
<stop offset="0.3913" stop-color="#735627"/>
<stop offset="0.4163" stop-color="#6F5225"/>
<stop offset="0.438" stop-color="#805F29"/>
<stop offset="0.4803" stop-color="#B38830"/>
<stop offset="0.5173" stop-color="#F3BD33"/>
<stop offset="0.6542" stop-color="#FCF7DA"/>
<stop offset="0.702" stop-color="#FCF6D6"/>
<stop offset="0.7526" stop-color="#FCF4CD"/>
<stop offset="0.8045" stop-color="#FDF1BD"/>
<stop offset="0.8573" stop-color="#FDEEA7"/>
<stop offset="0.9102" stop-color="#FDE98B"/>
<stop offset="0.9386" stop-color="#FEE779"/>
</linearGradient>
<linearGradient id="paint4_linear" x1="44.2805" y1="21.3783" x2="44.2805" y2="3.47753" gradientUnits="userSpaceOnUse">
<stop stop-color="#FAE062"/>
<stop offset="0.3048" stop-color="#9E8336"/>
<stop offset="0.3223" stop-color="#937633"/>
<stop offset="0.3588" stop-color="#7F622B"/>
<stop offset="0.3913" stop-color="#735627"/>
<stop offset="0.4163" stop-color="#6F5225"/>
<stop offset="0.438" stop-color="#805F29"/>
<stop offset="0.4803" stop-color="#B38830"/>
<stop offset="0.5173" stop-color="#F3BD33"/>
<stop offset="0.6542" stop-color="#FCF7DA"/>
<stop offset="0.702" stop-color="#FCF6D6"/>
<stop offset="0.7526" stop-color="#FCF4CD"/>
<stop offset="0.8045" stop-color="#FDF1BD"/>
<stop offset="0.8573" stop-color="#FDEEA7"/>
<stop offset="0.9102" stop-color="#FDE98B"/>
<stop offset="0.9386" stop-color="#FEE779"/>
</linearGradient>
<linearGradient id="paint5_linear" x1="61.1654" y1="20.5504" x2="61.1654" y2="3.5264" gradientUnits="userSpaceOnUse">
<stop stop-color="#FAE062"/>
<stop offset="0.3048" stop-color="#9E8336"/>
<stop offset="0.3223" stop-color="#937633"/>
<stop offset="0.3588" stop-color="#7F622B"/>
<stop offset="0.3913" stop-color="#735627"/>
<stop offset="0.4163" stop-color="#6F5225"/>
<stop offset="0.438" stop-color="#805F29"/>
<stop offset="0.4803" stop-color="#B38830"/>
<stop offset="0.5173" stop-color="#F3BD33"/>
<stop offset="0.6542" stop-color="#FCF7DA"/>
<stop offset="0.702" stop-color="#FCF6D6"/>
<stop offset="0.7526" stop-color="#FCF4CD"/>
<stop offset="0.8045" stop-color="#FDF1BD"/>
<stop offset="0.8573" stop-color="#FDEEA7"/>
<stop offset="0.9102" stop-color="#FDE98B"/>
<stop offset="0.9386" stop-color="#FEE779"/>
</linearGradient>
</defs>
</svg>
