<svg width="209" height="24" viewBox="0 0 209 24" fill="none" xmlns="http://www.w3.org/2000/svg">
<path d="M11.27 23.36C8.05 23.36 5.38 22.3 3.26 20.18C1.14 18.06 0.0800001 15.45 0.0800001 12.35C0.0800001 9.25 1.14 6.64 3.26 4.52C5.38 2.4 8.05 1.34 11.27 1.34C13.65 1.34 15.82 2.05 17.78 3.47C19.76 4.87 21.04 6.72 21.62 9.02H16.43C15.97 8.04 15.27 7.29 14.33 6.77C13.39 6.23 12.37 5.96 11.27 5.96C9.35 5.96 7.8 6.57 6.62 7.79C5.46 9.01 4.88 10.53 4.88 12.35C4.88 14.17 5.46 15.69 6.62 16.91C7.8 18.13 9.35 18.74 11.27 18.74C12.37 18.74 13.39 18.48 14.33 17.96C15.27 17.42 15.97 16.66 16.43 15.68H21.62C21.04 17.98 19.76 19.84 17.78 21.26C15.82 22.66 13.65 23.36 11.27 23.36ZM36.7496 21.08C35.2096 22.58 33.3496 23.33 31.1696 23.33C28.9896 23.33 27.1296 22.58 25.5896 21.08C24.0496 19.56 23.2796 17.7 23.2796 15.5C23.2796 13.3 24.0496 11.45 25.5896 9.95C27.1296 8.43 28.9896 7.67 31.1696 7.67C33.3496 7.67 35.2096 8.43 36.7496 9.95C38.2896 11.45 39.0596 13.3 39.0596 15.5C39.0596 17.7 38.2896 19.56 36.7496 21.08ZM28.7696 18.11C29.4096 18.77 30.2096 19.1 31.1696 19.1C32.1296 19.1 32.9196 18.77 33.5396 18.11C34.1796 17.45 34.4996 16.58 34.4996 15.5C34.4996 14.42 34.1796 13.55 33.5396 12.89C32.9196 12.23 32.1296 11.9 31.1696 11.9C30.2096 11.9 29.4096 12.23 28.7696 12.89C28.1496 13.55 27.8396 14.42 27.8396 15.5C27.8396 16.58 28.1496 17.45 28.7696 18.11ZM41.8463 23V8H46.3763V9.53C47.2363 8.29 48.6263 7.67 50.5463 7.67C52.3663 7.67 53.7863 8.28 54.8063 9.5C55.8463 10.72 56.3663 12.33 56.3663 14.33V23H51.8363V15.11C51.8363 12.89 51.0263 11.78 49.4063 11.78C48.5063 11.78 47.7763 12.11 47.2163 12.77C46.6563 13.43 46.3763 14.41 46.3763 15.71V23H41.8463ZM67.3674 23.18C65.6074 23.18 64.1574 22.7 63.0174 21.74C61.8974 20.76 61.3374 19.35 61.3374 17.51V11.93H58.3374V8H61.3374V3.83H65.8674V8H70.0674V11.93H65.8674V16.58C65.8674 17.48 66.0674 18.13 66.4674 18.53C66.8674 18.93 67.5174 19.13 68.4174 19.13C69.0974 19.13 69.6474 19.04 70.0674 18.86V22.88C69.4074 23.08 68.5074 23.18 67.3674 23.18ZM72.9303 23V8H77.4603V10.25C77.7003 9.57 78.1503 9 78.8103 8.54C79.4703 8.06 80.2103 7.82 81.0303 7.82C81.5503 7.82 82.0403 7.88 82.5003 8V12.59C81.8003 12.35 81.1303 12.23 80.4903 12.23C79.5303 12.23 78.7803 12.57 78.2403 13.25C77.7203 13.91 77.4603 14.79 77.4603 15.89V23H72.9303ZM97.0426 21.08C95.5026 22.58 93.6426 23.33 91.4626 23.33C89.2826 23.33 87.4226 22.58 85.8826 21.08C84.3426 19.56 83.5726 17.7 83.5726 15.5C83.5726 13.3 84.3426 11.45 85.8826 9.95C87.4226 8.43 89.2826 7.67 91.4626 7.67C93.6426 7.67 95.5026 8.43 97.0426 9.95C98.5826 11.45 99.3526 13.3 99.3526 15.5C99.3526 17.7 98.5826 19.56 97.0426 21.08ZM89.0626 18.11C89.7026 18.77 90.5026 19.1 91.4626 19.1C92.4226 19.1 93.2126 18.77 93.8326 18.11C94.4726 17.45 94.7926 16.58 94.7926 15.5C94.7926 14.42 94.4726 13.55 93.8326 12.89C93.2126 12.23 92.4226 11.9 91.4626 11.9C90.5026 11.9 89.7026 12.23 89.0626 12.89C88.4426 13.55 88.1326 14.42 88.1326 15.5C88.1326 16.58 88.4426 17.45 89.0626 18.11ZM102.139 23V0.499998H106.669V23H102.139ZM115.081 22.31C114.461 22.93 113.711 23.24 112.831 23.24C111.951 23.24 111.191 22.93 110.551 22.31C109.931 21.67 109.621 20.91 109.621 20.03C109.621 19.15 109.931 18.4 110.551 17.78C111.191 17.14 111.951 16.82 112.831 16.82C113.711 16.82 114.461 17.14 115.081 17.78C115.721 18.4 116.041 19.15 116.041 20.03C116.041 20.91 115.721 21.67 115.081 22.31ZM118.985 23V8H123.515V9.53C124.375 8.29 125.765 7.67 127.685 7.67C129.505 7.67 130.925 8.28 131.945 9.5C132.985 10.72 133.505 12.33 133.505 14.33V23H128.975V15.11C128.975 12.89 128.165 11.78 126.545 11.78C125.645 11.78 124.915 12.11 124.355 12.77C123.795 13.43 123.515 14.41 123.515 15.71V23H118.985ZM144.082 23.33C141.762 23.33 139.852 22.59 138.352 21.11C136.872 19.63 136.132 17.75 136.132 15.47C136.132 13.23 136.882 11.37 138.382 9.89C139.902 8.41 141.802 7.67 144.082 7.67C145.182 7.67 146.212 7.86 147.172 8.24C148.152 8.62 149.012 9.17 149.752 9.89C150.512 10.61 151.102 11.54 151.522 12.68C151.942 13.82 152.132 15.11 152.092 16.55H140.542C140.622 17.37 140.982 18.06 141.622 18.62C142.262 19.16 143.162 19.43 144.322 19.43C144.982 19.43 145.582 19.3 146.122 19.04C146.662 18.76 147.022 18.42 147.202 18.02H151.942C151.462 19.6 150.502 20.88 149.062 21.86C147.622 22.84 145.962 23.33 144.082 23.33ZM143.962 11.27C143.102 11.27 142.382 11.49 141.802 11.93C141.242 12.37 140.862 12.95 140.662 13.67H147.082C146.862 12.85 146.452 12.25 145.852 11.87C145.272 11.47 144.642 11.27 143.962 11.27ZM162.201 23.18C160.441 23.18 158.991 22.7 157.851 21.74C156.731 20.76 156.171 19.35 156.171 17.51V11.93H153.171V8H156.171V3.83H160.701V8H164.901V11.93H160.701V16.58C160.701 17.48 160.901 18.13 161.301 18.53C161.701 18.93 162.351 19.13 163.251 19.13C163.931 19.13 164.481 19.04 164.901 18.86V22.88C164.241 23.08 163.341 23.18 162.201 23.18ZM172.444 22.31C171.824 22.93 171.074 23.24 170.194 23.24C169.314 23.24 168.554 22.93 167.914 22.31C167.294 21.67 166.984 20.91 166.984 20.03C166.984 19.15 167.294 18.4 167.914 17.78C168.554 17.14 169.314 16.82 170.194 16.82C171.074 16.82 171.824 17.14 172.444 17.78C173.084 18.4 173.404 19.15 173.404 20.03C173.404 20.91 173.084 21.67 172.444 22.31ZM181.838 23.33C180.018 23.33 178.618 22.72 177.638 21.5C176.658 20.28 176.168 18.63 176.168 16.55V8H180.698V15.77C180.698 18.07 181.468 19.22 183.008 19.22C184.888 19.22 185.828 17.91 185.828 15.29V8H190.358V23H185.828V21.47C184.968 22.71 183.638 23.33 181.838 23.33ZM200.133 23.33C198.193 23.33 196.543 22.56 195.183 21.02C193.843 19.48 193.173 17.64 193.173 15.5C193.173 13.36 193.843 11.52 195.183 9.98C196.543 8.44 198.193 7.67 200.133 7.67C201.853 7.67 203.213 8.28 204.213 9.5V8H208.743V23H204.213V21.5C203.213 22.72 201.853 23.33 200.133 23.33ZM198.663 18.17C199.303 18.87 200.133 19.22 201.153 19.22C202.173 19.22 202.993 18.87 203.613 18.17C204.253 17.47 204.573 16.58 204.573 15.5C204.573 14.42 204.253 13.53 203.613 12.83C202.993 12.13 202.173 11.78 201.153 11.78C200.133 11.78 199.303 12.13 198.663 12.83C198.043 13.53 197.733 14.42 197.733 15.5C197.733 16.58 198.043 17.47 198.663 18.17Z" fill="#FBFBFB"/>
</svg>
