<svg width="127" height="20" viewBox="0 0 127 20" fill="none" xmlns="http://www.w3.org/2000/svg">
<path d="M2.83151 9.89901C2.83151 11.871 3.69107 12.9833 5.25851 12.9833C6.72483 12.9833 7.83721 11.6687 7.83721 9.79788C7.83721 8.02818 6.82595 6.71355 5.46076 6.71355C3.84275 6.76411 2.83151 7.97763 2.83151 9.89901ZM7.78664 13.6406C7.33158 14.1463 6.42145 15.2586 4.4495 15.2586C1.87081 15.2586 0 13.0339 0 9.84844C0 6.663 1.92139 4.43823 4.65177 4.43823C5.71358 4.43823 6.57314 4.84274 7.83721 5.854V4.69105H11.5788V6.81468H10.5676V15.3092C10.5676 17.9385 8.59564 19.5059 5.25851 19.5059C3.64051 19.5059 2.37644 19.152 1.46631 18.3935C0.758436 17.8373 0.455057 17.2812 0.151682 15.9665H2.83151C3.18545 16.9778 3.94388 17.4328 5.20794 17.4328C6.77539 17.4328 7.83721 16.6238 7.83721 15.3598C7.78664 15.3598 7.78664 13.6406 7.78664 13.6406Z" fill="#52575E"/>
<path d="M19.2134 10.5055C16.6347 10.7584 14.9156 10.9606 14.9156 12.5281C14.9156 13.4382 15.6235 14.0449 16.7359 14.0449C18.1516 14.0449 19.2134 12.9831 19.2134 11.6179C19.2134 11.5674 19.2134 10.5055 19.2134 10.5055ZM21.7921 13.5899H22.7528V15.7135H19.3146V14.3989C18.2022 15.5618 17.3426 15.9158 15.9774 15.9158C13.7527 15.9158 12.0841 14.4494 12.0841 12.4775C12.0841 9.24148 15.7246 8.88754 19.264 8.53361C19.264 6.81448 18.8089 6.40997 17.2415 6.40997C16.1291 6.40997 15.3201 7.06729 15.2696 8.07855L12.5897 7.97741C12.7414 5.75266 14.5111 4.33691 17.1404 4.33691C20.1741 4.33691 21.8427 5.7021 21.8427 8.23023L21.7921 13.5899Z" fill="#52575E"/>
<path d="M27.1522 6.00568C28.3151 4.74161 29.0735 4.43823 30.3376 4.43823C31.6017 4.43823 32.259 4.89329 32.9669 6.15736C33.523 5.60117 34.5343 4.43823 36.304 4.43823C38.0737 4.43823 39.2872 5.70231 39.2872 7.57312V13.6406H40.2984V15.7643H36.5568V8.281C36.5568 7.32031 36.1017 6.71355 35.3939 6.71355C34.2815 6.71355 33.2197 8.17987 33.2197 9.69675V13.5395H34.2815V15.6631H30.4893V8.38213C30.4893 7.26975 30.1354 6.71355 29.3263 6.71355C28.1128 6.71355 27.051 8.17987 27.1016 9.94956V13.5395H28.1634V15.6631H23.4611V13.5395H24.3712V6.81468H23.4105V4.69105H27.051V6.00568H27.1522Z" fill="#52575E"/>
<path d="M44.6469 10.253C44.6469 12.5283 45.5571 13.7418 47.3268 13.7418C48.8437 13.7418 49.8043 12.3766 49.8043 10.2024C49.8043 8.02821 48.8437 6.66302 47.3268 6.66302C45.6076 6.66302 44.6469 7.97765 44.6469 10.253ZM40.9559 0.494385H44.6975V5.90458C45.8099 4.7922 46.6695 4.33715 47.8324 4.33715C50.6133 4.33715 52.5853 6.71359 52.5853 10.0507C52.5853 13.5901 50.7145 15.9666 47.9841 15.9666C46.6189 15.9666 45.8604 15.6126 44.5964 14.5002V15.7137H40.8547V13.5901H42.0177V2.61801H40.9559V0.494385Z" fill="#52575E"/>
<path d="M53.2422 0.494385H56.9838V13.5901H58.0456V15.7137H53.2422V13.5901H54.304V2.61801H53.2422V0.494385Z" fill="#52575E"/>
<path d="M66.1362 8.83697C65.934 7.42122 65.125 6.66277 63.8104 6.66277C62.5968 6.66277 61.6867 7.47178 61.3328 8.83697H66.1362ZM68.9677 12.1235C68.4621 14.5 66.4902 16.0169 63.7598 16.0169C60.6755 16.0169 58.4001 13.5899 58.4001 10.2022C58.4001 6.86502 60.6755 4.38745 63.8104 4.38745C65.58 4.38745 67.0969 5.19645 68.0576 6.66277C69.0689 8.23021 69.1194 9.69653 69.17 10.8089H61.1811C61.4339 13.691 63.3047 13.8427 63.8609 13.8427C64.9733 13.8427 65.6812 13.337 66.1362 12.1741L68.9677 12.1235Z" fill="#52575E"/>
<path d="M77.1587 10.101L76.198 10.2527C74.1755 10.5561 73.316 10.8595 72.7598 11.4157C72.4564 11.7191 72.3047 12.1235 72.3047 12.4775C72.3047 13.4887 73.1643 14.3483 74.2261 14.3483C75.743 14.3483 77.1587 12.9831 77.1587 11.6179V10.101ZM77.1587 14.2472C76.1475 15.1573 75.2373 15.9663 73.4171 15.9663C71.344 15.9663 69.8271 14.5506 69.8271 12.6292C69.8271 11.7696 70.1305 11.0617 70.6361 10.455C71.4957 9.59541 72.7092 9.19093 75.6419 8.88755L77.1082 8.73585V8.02798C77.1082 6.76391 76.2992 6.05604 74.7823 6.05604C73.4171 6.05604 72.7598 6.56167 72.507 7.8763H70.2316C70.3833 6.71336 70.6867 6.1066 71.2935 5.49985C72.153 4.74141 73.3665 4.33691 74.934 4.33691C77.6644 4.33691 79.2824 5.7021 79.2824 8.02798V13.9438H80.597V15.7135H77.1082L77.1587 14.2472Z" fill="#989DA4"/>
<path d="M80.4448 4.64087H84.6921V6.41056H83.4786L85.2988 13.8938L87.4225 4.64087H89.4955L91.6192 13.8938L93.4394 6.41056H92.2259V4.64087H96.4226V6.41056H95.3102L92.7821 15.7141H90.4562L88.4337 7.42181L86.4618 15.7141H84.0853L81.5066 6.41056H80.4448V4.64087Z" fill="#989DA4"/>
<path d="M104.159 10.101L103.199 10.2527C101.176 10.5561 100.316 10.8595 99.7602 11.4157C99.4569 11.7191 99.3052 12.1235 99.3052 12.4775C99.3052 13.4887 100.165 14.3483 101.227 14.3483C102.743 14.3483 104.159 12.9831 104.159 11.6179V10.101ZM104.159 14.2472C103.148 15.1573 102.238 15.9663 100.468 15.9663C98.3951 15.9663 96.8782 14.5506 96.8782 12.6292C96.8782 11.7696 97.1815 11.0617 97.6872 10.455C98.5467 9.59541 99.7602 9.19093 102.693 8.88755L104.159 8.73585V8.02798C104.159 6.76391 103.35 6.05604 101.833 6.05604C100.468 6.05604 99.8108 6.56167 99.558 7.8763H97.2827C97.4344 6.71336 97.7377 6.1066 98.3445 5.49985C99.2041 4.74141 100.418 4.33691 101.985 4.33691C104.715 4.33691 106.333 5.7021 106.333 8.02798V13.9438H107.648V15.7135H104.159V14.2472Z" fill="#989DA4"/>
<path d="M111.794 7.11785C112.401 5.80322 113.058 4.38745 115.03 4.38745C115.435 4.38745 115.637 4.43802 116.092 4.53915V6.61222C115.536 6.51109 115.334 6.46052 115.03 6.46052C112.553 6.46052 111.845 8.93809 111.845 9.74709V13.9438H113.109V15.7135H108.406V13.9438H109.671V6.35941H108.406V4.64026H111.794V7.11785Z" fill="#989DA4"/>
<path d="M124.081 9.08979C123.98 7.26953 123.12 6.25827 121.603 6.25827C119.328 6.25827 118.671 8.78641 118.671 9.08979H124.081ZM126.356 12.3258C125.901 13.4382 124.789 15.9663 121.603 15.9663C118.468 15.9663 116.345 13.5899 116.345 10.0505C116.345 6.7639 118.62 4.38745 121.654 4.38745C123.423 4.38745 126.558 5.39871 126.558 10.6067H118.569C118.671 13.0842 120.238 14.0955 121.704 14.0955C122.867 14.0955 123.575 13.5393 123.98 12.2752H126.356V12.3258Z" fill="#989DA4"/>
</svg>
