<svg width="29" height="32" viewBox="0 0 29 32" fill="none" xmlns="http://www.w3.org/2000/svg">
<g clip-path="url(#clip0)">
<path d="M27.9721 15.3313C27.8793 15.2835 27.74 15.2357 27.6007 15.188C27.5542 15.188 27.5542 15.188 27.5078 15.188H27.4614H27.4149C27.3685 15.188 27.3221 15.188 27.2756 15.188H18.871C18.2673 15.188 17.803 15.6656 17.803 16.2865C17.803 16.9074 18.2673 17.385 18.871 17.385H22.1214C22.2143 17.385 22.3071 17.4805 22.3071 17.576C22.3071 17.6238 22.2607 17.6716 22.2143 17.7193C20.4033 18.7223 18.128 19.2955 15.5741 19.2955C14.9705 19.2955 14.3668 19.2477 13.7632 19.1999V21.7313C14.274 21.779 14.7847 21.779 15.2955 21.779C18.8245 21.779 22.0285 20.9193 24.3967 19.4387C24.4431 19.4387 24.4431 19.391 24.4896 19.391C24.6289 19.391 24.7217 19.4865 24.7217 19.6298V19.6775L24.2109 21.0626C23.9323 21.779 24.3038 22.591 25.0468 22.8775C25.1861 22.9253 25.3718 22.9731 25.5111 22.9731C26.0683 22.9731 26.5791 22.6387 26.8113 22.0656L28.6222 17.0029C28.9008 16.382 28.6222 15.6656 27.9721 15.3313Z" fill="#51565D"/>
<path d="M15.6205 5.82685C18.1744 5.82685 20.4961 6.44774 22.307 7.45072C22.307 7.45072 23.4679 8.31043 23.9787 7.49849C24.5823 6.54326 23.375 5.97012 23.375 5.97012C21.1462 4.87162 18.3601 4.25073 15.3883 4.25073C14.8775 4.25073 14.3667 4.25072 13.856 4.29848V5.92237C14.4132 5.82685 15.0168 5.82685 15.6205 5.82685Z" fill="#51565D"/>
<path d="M2.66529 0C1.64373 0 0.761475 0.859704 0.761475 1.95821V23.3075C0.761475 24.406 1.5973 25.2657 2.66529 25.2657H13.8096V21.7313C7.123 21.2537 1.92234 17.5284 1.92234 12.9911C1.92234 8.45374 7.123 4.77613 13.8096 4.25076V0H2.66529Z" fill="#51565D"/>
<path d="M5.26562 12.5612C5.26562 15.9044 8.93395 18.6746 13.8096 19.2V5.92236C8.98038 6.44774 5.26562 9.21788 5.26562 12.5612Z" fill="#51565D"/>
<path d="M5.12631 29.7076C5.07988 31.0926 4.1512 32.0001 2.9439 32.0001C2.29382 32.0001 1.7366 31.7613 1.31869 31.2359C0.947218 30.8061 0.761475 30.2807 0.761475 29.6598C0.761475 29.0389 0.993644 28.4658 1.41155 28.0359C1.82947 27.6061 2.34024 27.415 2.99032 27.415C3.87258 27.415 4.5691 27.8449 4.89414 28.6091H4.10476C3.82616 28.227 3.40825 28.0359 2.9439 28.0359C2.52599 28.0359 2.15451 28.1792 1.8759 28.5135C1.55086 28.8479 1.41155 29.2777 1.41155 29.7076C1.41155 30.1852 1.55086 30.615 1.82946 30.9016C2.10807 31.2359 2.52599 31.3792 2.9439 31.3792C3.59398 31.3792 4.10476 31.0449 4.4298 30.3285H2.47956V29.7076H5.12631Z" fill="#51565D"/>
<path d="M5.82293 31.9044H5.17285L6.8445 27.4626H7.44814L9.11978 31.9044H8.42327L7.95892 30.6149H6.28728L5.82293 31.9044ZM7.12311 28.3224L6.51945 29.994H7.72675L7.12311 28.3224Z" fill="#51565D"/>
<path d="M9.35181 31.9044V27.4626H10.2805L11.5342 30.9015L12.788 27.4626H13.7166V31.9044H13.113L13.1594 28.0836L11.7664 31.9044H11.3021L9.90903 28.0836L9.95545 31.9044H9.35181Z" fill="#51565D"/>
<path d="M16.4563 32C15.8063 32 15.2955 31.7612 14.8776 31.2836C14.4597 30.8537 14.2739 30.2806 14.2739 29.6597C14.2739 29.0388 14.5061 28.4657 14.924 28.0358C15.3419 27.606 15.8991 27.3672 16.5028 27.3672C17.5243 27.3672 18.3602 28.0358 18.6388 29.1343H17.4779C17.2457 28.7045 16.9207 28.4657 16.4563 28.4657C15.8063 28.4657 15.2955 28.9911 15.2955 29.612C15.2955 30.3284 15.8063 30.8537 16.4099 30.8537C16.8278 30.8537 17.1529 30.6149 17.385 30.2329H18.5459C18.3137 31.3314 17.4779 32 16.4563 32Z" fill="#51565D"/>
<path d="M19.6604 31.9044H18.4995L20.1711 27.4626H21.0534L22.725 31.9044H21.5642L21.332 31.2835H19.8925L19.6604 31.9044ZM20.5891 28.9432L20.1711 30.3761H21.007L20.5891 28.9432Z" fill="#51565D"/>
<path d="M22.7249 31.9044V27.4626H24.1643C24.6287 27.4626 24.9537 27.5104 25.2323 27.7015C25.6038 27.988 25.836 28.3701 25.836 28.9432C25.836 29.6597 25.4645 30.185 24.8608 30.3761L25.9288 31.9044H24.6287L23.7929 30.4716V31.9044H22.7249ZM24.025 29.5164C24.5358 29.5164 24.8144 29.3731 24.8144 28.991C24.8144 28.6089 24.5822 28.4656 24.1179 28.4656H23.8393V29.5164H24.025Z" fill="#51565D"/>
<path d="M26.3933 31.9044V27.4626H28.715V28.4179H27.4149V29.1343H28.715V30.1373H27.4149V30.9015H28.715V31.8567H26.3933V31.9044Z" fill="#51565D"/>
</g>
<defs>
<clipPath id="clip0">
<rect width="28" height="32" fill="white" transform="translate(0.761475)"/>
</clipPath>
</defs>
</svg>
