<svg width="33" height="32" viewBox="0 0 33 32" fill="none" xmlns="http://www.w3.org/2000/svg">
<g clip-path="url(#clip0)">
<path d="M15.7993 16.2402C14.9594 16.2402 14.2761 16.9235 14.2761 17.7634C14.2761 18.6032 14.9594 19.2865 15.7993 19.2865C16.6392 19.2865 17.3225 18.6032 17.3225 17.7634C17.3226 16.9235 16.6392 16.2402 15.7993 16.2402Z" fill="#FBFBFB" fill-opacity="0.3"/>
<path d="M15.7993 14.365C16.2716 14.365 16.6557 13.9809 16.6557 13.5085C16.6557 13.0363 16.2716 12.6521 15.7993 12.6521C15.3271 12.6521 14.9429 13.0363 14.9429 13.5085C14.9429 13.9808 15.3271 14.365 15.7993 14.365Z" fill="#FBFBFB" fill-opacity="0.3"/>
<path d="M16.7615 0C7.91829 0 0.761475 7.15606 0.761475 16C0.761475 24.8432 7.91754 32 16.7615 32C25.6047 32 32.7615 24.8439 32.7615 16C32.7615 7.15681 25.6054 0 16.7615 0ZM10.5146 20.2853C10.5146 20.8031 10.0948 21.2228 9.5771 21.2228C9.05935 21.2228 8.6396 20.8031 8.6396 20.2853V12.7136H7.75835C7.2406 12.7136 6.82085 12.2938 6.82085 11.7761C6.82085 11.2583 7.2406 10.8386 7.75835 10.8386H9.5771C10.0948 10.8386 10.5146 11.2583 10.5146 11.7761V20.2853ZM15.7992 21.1614C12.6348 21.1614 11.1912 17.1897 13.6225 15.1563C12.2667 13.3694 13.543 10.7772 15.7992 10.7772C18.0523 10.7772 19.3342 13.3662 17.976 15.1563C20.4118 17.1935 18.9567 21.1614 15.7992 21.1614ZM25.7646 14.8383H24.5146V16.091C24.5146 16.6087 24.0948 17.0285 23.5771 17.0285C23.0593 17.0285 22.6396 16.6087 22.6396 16.091V14.8383H21.3896C20.8718 14.8383 20.4521 14.4186 20.4521 13.9008C20.4521 13.3831 20.8718 12.9633 21.3896 12.9633H22.6396V11.7146C22.6396 11.1969 23.0593 10.7771 23.5771 10.7771C24.0948 10.7771 24.5146 11.1969 24.5146 11.7146V12.9633H25.7646C26.2823 12.9633 26.7021 13.3831 26.7021 13.9008C26.7021 14.4186 26.2823 14.8383 25.7646 14.8383Z" fill="white" fill-opacity="0.3"/>
</g>
<defs>
<clipPath id="clip0">
<rect width="32" height="32" fill="white" transform="translate(0.761475)"/>
</clipPath>
</defs>
</svg>
