<svg width="126" height="15" viewBox="0 0 126 15" fill="none" xmlns="http://www.w3.org/2000/svg">
<path d="M7.362 14.216C5.43 14.216 3.828 13.58 2.556 12.308C1.284 11.036 0.648 9.47 0.648 7.61C0.648 5.75 1.284 4.184 2.556 2.912C3.828 1.64 5.43 1.004 7.362 1.004C8.79 1.004 10.092 1.43 11.268 2.282C12.456 3.122 13.224 4.232 13.572 5.612H10.458C10.182 5.024 9.762 4.574 9.198 4.262C8.634 3.938 8.022 3.776 7.362 3.776C6.21 3.776 5.28 4.142 4.572 4.874C3.876 5.606 3.528 6.518 3.528 7.61C3.528 8.702 3.876 9.614 4.572 10.346C5.28 11.078 6.21 11.444 7.362 11.444C8.022 11.444 8.634 11.288 9.198 10.976C9.762 10.652 10.182 10.196 10.458 9.608H13.572C13.224 10.988 12.456 12.104 11.268 12.956C10.092 13.796 8.79 14.216 7.362 14.216ZM22.6498 12.848C21.7258 13.748 20.6098 14.198 19.3018 14.198C17.9938 14.198 16.8778 13.748 15.9538 12.848C15.0298 11.936 14.5678 10.82 14.5678 9.5C14.5678 8.18 15.0298 7.07 15.9538 6.17C16.8778 5.258 17.9938 4.802 19.3018 4.802C20.6098 4.802 21.7258 5.258 22.6498 6.17C23.5738 7.07 24.0358 8.18 24.0358 9.5C24.0358 10.82 23.5738 11.936 22.6498 12.848ZM17.8618 11.066C18.2458 11.462 18.7258 11.66 19.3018 11.66C19.8778 11.66 20.3518 11.462 20.7238 11.066C21.1078 10.67 21.2998 10.148 21.2998 9.5C21.2998 8.852 21.1078 8.33 20.7238 7.934C20.3518 7.538 19.8778 7.34 19.3018 7.34C18.7258 7.34 18.2458 7.538 17.8618 7.934C17.4898 8.33 17.3038 8.852 17.3038 9.5C17.3038 10.148 17.4898 10.67 17.8618 11.066ZM25.7078 14V5H28.4258V5.918C28.9418 5.174 29.7758 4.802 30.9278 4.802C32.0198 4.802 32.8718 5.168 33.4838 5.9C34.1078 6.632 34.4198 7.598 34.4198 8.798V14H31.7018V9.266C31.7018 7.934 31.2158 7.268 30.2438 7.268C29.7038 7.268 29.2658 7.466 28.9298 7.862C28.5938 8.258 28.4258 8.846 28.4258 9.626V14H25.7078ZM41.0205 14.108C39.9645 14.108 39.0945 13.82 38.4105 13.244C37.7385 12.656 37.4025 11.81 37.4025 10.706V7.358H35.6025V5H37.4025V2.498H40.1205V5H42.6405V7.358H40.1205V10.148C40.1205 10.688 40.2405 11.078 40.4805 11.318C40.7205 11.558 41.1105 11.678 41.6505 11.678C42.0585 11.678 42.3885 11.624 42.6405 11.516V13.928C42.2445 14.048 41.7045 14.108 41.0205 14.108ZM44.3582 14V5H47.0762V6.35C47.2202 5.942 47.4902 5.6 47.8862 5.324C48.2822 5.036 48.7262 4.892 49.2182 4.892C49.5302 4.892 49.8242 4.928 50.1002 5V7.754C49.6802 7.61 49.2782 7.538 48.8942 7.538C48.3182 7.538 47.8682 7.742 47.5442 8.15C47.2322 8.546 47.0762 9.074 47.0762 9.734V14H44.3582ZM58.8255 12.848C57.9015 13.748 56.7855 14.198 55.4775 14.198C54.1695 14.198 53.0535 13.748 52.1295 12.848C51.2055 11.936 50.7435 10.82 50.7435 9.5C50.7435 8.18 51.2055 7.07 52.1295 6.17C53.0535 5.258 54.1695 4.802 55.4775 4.802C56.7855 4.802 57.9015 5.258 58.8255 6.17C59.7495 7.07 60.2115 8.18 60.2115 9.5C60.2115 10.82 59.7495 11.936 58.8255 12.848ZM54.0375 11.066C54.4215 11.462 54.9015 11.66 55.4775 11.66C56.0535 11.66 56.5275 11.462 56.8995 11.066C57.2835 10.67 57.4755 10.148 57.4755 9.5C57.4755 8.852 57.2835 8.33 56.8995 7.934C56.5275 7.538 56.0535 7.34 55.4775 7.34C54.9015 7.34 54.4215 7.538 54.0375 7.934C53.6655 8.33 53.4795 8.852 53.4795 9.5C53.4795 10.148 53.6655 10.67 54.0375 11.066ZM61.8836 14V0.499999H64.6016V14H61.8836ZM69.6486 13.586C69.2766 13.958 68.8266 14.144 68.2986 14.144C67.7706 14.144 67.3146 13.958 66.9306 13.586C66.5586 13.202 66.3726 12.746 66.3726 12.218C66.3726 11.69 66.5586 11.24 66.9306 10.868C67.3146 10.484 67.7706 10.292 68.2986 10.292C68.8266 10.292 69.2766 10.484 69.6486 10.868C70.0326 11.24 70.2246 11.69 70.2246 12.218C70.2246 12.746 70.0326 13.202 69.6486 13.586ZM71.991 14V5H74.709V5.918C75.225 5.174 76.059 4.802 77.211 4.802C78.303 4.802 79.155 5.168 79.767 5.9C80.391 6.632 80.703 7.598 80.703 8.798V14H77.985V9.266C77.985 7.934 77.499 7.268 76.527 7.268C75.987 7.268 75.549 7.466 75.213 7.862C74.877 8.258 74.709 8.846 74.709 9.626V14H71.991ZM87.0491 14.198C85.6571 14.198 84.5111 13.754 83.6111 12.866C82.7231 11.978 82.2791 10.85 82.2791 9.482C82.2791 8.138 82.7291 7.022 83.6291 6.134C84.5411 5.246 85.6811 4.802 87.0491 4.802C87.7091 4.802 88.3271 4.916 88.9031 5.144C89.4911 5.372 90.0071 5.702 90.4511 6.134C90.9071 6.566 91.2611 7.124 91.5131 7.808C91.7651 8.492 91.8791 9.266 91.8551 10.13H84.9251C84.9731 10.622 85.1891 11.036 85.5731 11.372C85.9571 11.696 86.4971 11.858 87.1931 11.858C87.5891 11.858 87.9491 11.78 88.2731 11.624C88.5971 11.456 88.8131 11.252 88.9211 11.012H91.7651C91.4771 11.96 90.9011 12.728 90.0371 13.316C89.1731 13.904 88.1771 14.198 87.0491 14.198ZM86.9771 6.962C86.4611 6.962 86.0291 7.094 85.6811 7.358C85.3451 7.622 85.1171 7.97 84.9971 8.402H88.8491C88.7171 7.91 88.4711 7.55 88.1111 7.322C87.7631 7.082 87.3851 6.962 86.9771 6.962ZM97.9208 14.108C96.8648 14.108 95.9948 13.82 95.3108 13.244C94.6388 12.656 94.3028 11.81 94.3028 10.706V7.358H92.5028V5H94.3028V2.498H97.0208V5H99.5408V7.358H97.0208V10.148C97.0208 10.688 97.1408 11.078 97.3808 11.318C97.6208 11.558 98.0108 11.678 98.5508 11.678C98.9588 11.678 99.2888 11.624 99.5408 11.516V13.928C99.1448 14.048 98.6048 14.108 97.9208 14.108ZM104.067 13.586C103.695 13.958 103.245 14.144 102.717 14.144C102.189 14.144 101.733 13.958 101.349 13.586C100.977 13.202 100.791 12.746 100.791 12.218C100.791 11.69 100.977 11.24 101.349 10.868C101.733 10.484 102.189 10.292 102.717 10.292C103.245 10.292 103.695 10.484 104.067 10.868C104.451 11.24 104.643 11.69 104.643 12.218C104.643 12.746 104.451 13.202 104.067 13.586ZM109.703 14.198C108.611 14.198 107.771 13.832 107.183 13.1C106.595 12.368 106.301 11.378 106.301 10.13V5H109.019V9.662C109.019 11.042 109.481 11.732 110.405 11.732C111.533 11.732 112.097 10.946 112.097 9.374V5H114.815V14H112.097V13.082C111.581 13.826 110.783 14.198 109.703 14.198ZM120.68 14.198C119.516 14.198 118.526 13.736 117.71 12.812C116.906 11.888 116.504 10.784 116.504 9.5C116.504 8.216 116.906 7.112 117.71 6.188C118.526 5.264 119.516 4.802 120.68 4.802C121.712 4.802 122.528 5.168 123.128 5.9V5H125.846V14H123.128V13.1C122.528 13.832 121.712 14.198 120.68 14.198ZM119.798 11.102C120.182 11.522 120.68 11.732 121.292 11.732C121.904 11.732 122.396 11.522 122.768 11.102C123.152 10.682 123.344 10.148 123.344 9.5C123.344 8.852 123.152 8.318 122.768 7.898C122.396 7.478 121.904 7.268 121.292 7.268C120.68 7.268 120.182 7.478 119.798 7.898C119.426 8.318 119.24 8.852 119.24 9.5C119.24 10.148 119.426 10.682 119.798 11.102Z" fill="#FBFBFB"/>
</svg>
