<svg width="75" height="74" viewBox="0 0 75 74" fill="none" xmlns="http://www.w3.org/2000/svg">
<g clip-path="url(#clip0)">
<path d="M12.5608 32.8596C12.7067 33.0716 26.1296 35.9439 26.1296 35.9439L40.3057 25.889L24.5791 23.0675L12.5608 32.8596Z" fill="#DFA94E"/>
<path d="M18.6097 30.2183C21.3427 28.0532 27.9731 22.3959 29.3348 18.332C25.0452 18.2761 17.5194 22.6674 14.5799 24.5258C13.5405 25.1831 12.6107 25.9238 11.8163 26.7049L5.21114 33.2165C4.83606 34.4513 6.03244 36.1429 7.31984 36.1862L15.6473 32.1014C16.6405 31.6163 17.6479 30.9823 18.6097 30.2183Z" fill="#DFA94E"/>
<path d="M7.66621 33.1046C7.3618 32.6407 7.06176 32.1492 6.81511 31.6189L5.22473 33.1903C4.84966 34.4251 6.04604 36.1167 7.33344 36.16L9.413 35.1385C8.71522 34.5934 8.15385 33.8432 7.66621 33.1046Z" fill="#DFA94E"/>
<path d="M32.434 24.4722L21.0232 34.8423L18.1848 34.2132L31.4876 24.3035L32.434 24.4722Z" fill="#DFA94E"/>
<path d="M32.77 61.3598C32.624 61.1477 34.3458 47.5331 34.3458 47.5331L48.5219 37.4783L45.9861 53.2501L32.77 61.3598Z" fill="#DFA94E"/>
<path d="M37.2685 56.5174C40.2173 54.6604 47.7431 50.2691 52.0234 50.3236C50.6618 54.3874 44.0314 60.0447 41.2983 62.2098C40.3365 62.9739 39.3292 63.6079 38.3253 64.1007L29.9978 68.1855C28.7119 68.133 27.5155 66.4414 27.8891 65.2158L34.4943 58.7042C35.2994 57.9154 36.2292 57.1746 37.2685 56.5174Z" fill="#DFA94E"/>
<path d="M30.9274 65.8954C31.2638 66.336 31.6279 66.781 32.0454 67.1872L30.0376 68.1729C28.7517 68.1204 27.5553 66.4288 27.9289 65.2032L29.5756 63.5746C29.8677 64.4144 30.3878 65.1864 30.9274 65.8954Z" fill="#DFA94E"/>
<path d="M47.254 45.3642L33.705 52.7126L33.3616 55.5962L47.1037 46.3134L47.254 45.3642Z" fill="#DFA94E"/>
<path d="M18.8205 44L16.5603 45.6035L23.1582 54.9028L25.4183 53.2992L18.8205 44Z" fill="#DFA94E"/>
<path d="M21.6964 57.2535L13.7721 46.0884L16.5167 45.1627L23.4759 54.9658L21.6964 57.2535Z" fill="#DFA94E"/>
<path d="M58.9881 38.5597C64.7126 33.373 69.2823 26.8886 72.4116 19.836C73.6018 17.1526 74.7077 13.3316 74.7842 10.6418C72.2204 9.82953 68.2501 9.60691 65.3297 9.85291C57.6355 10.4765 50.0075 12.6504 43.2261 16.3376C36.011 20.2585 30.5156 26.2656 24.3098 31.5084C21.2564 34.0857 18.2122 36.6644 15.1588 39.2416L28.1029 57.4841C31.5411 55.4591 34.9809 53.4248 38.4284 51.4012C45.4209 47.275 52.8996 44.0761 58.9881 38.5597Z" fill="#DFA94E"/>
<path d="M21.7045 58.6341L12.5605 45.7454C12.514 45.6813 12.5286 45.5892 12.5941 45.5334L13.1477 45.1393C13.2118 45.0928 13.304 45.1074 13.3597 45.1729L22.496 58.0509C22.5425 58.115 22.5279 58.2071 22.4624 58.2629L21.9087 58.657C21.8432 58.7128 21.7511 58.6982 21.7045 58.6341Z" fill="#DFA94E"/>
<path d="M18.6253 44.1363L25.22 53.4376L23.7176 54.5128L18.1998 44.4374L18.6253 44.1363Z" fill="#DFA94E"/>
<path d="M15.1031 39.1761L28.0471 57.4186L33.1618 54.4121L19.5734 35.5857L15.1031 39.1761Z" fill="#DFA94E"/>
<path d="M6.81365 31.6281C6.81365 31.6281 8.32232 34.5689 9.41154 35.1477L10.4751 34.6359C10.4751 34.6359 8.55028 32.5928 7.71003 30.7403L6.81365 31.6281Z" fill="#DFA94E"/>
<path d="M29.15 63.8756C29.15 63.8756 30.6587 66.8164 31.7479 67.3952L32.8115 66.8834C32.8115 66.8834 30.8866 64.8403 30.0464 62.9879L29.15 63.8756Z" fill="#DFA94E"/>
<path d="M69.2532 25.9393C70.4246 23.9709 71.485 21.9282 72.4116 19.836C73.6018 17.1526 74.7077 13.3316 74.7842 10.6418C72.2204 9.82953 68.2501 9.60691 65.3297 9.85291C63.0808 10.0352 60.8391 10.3509 58.6244 10.7937C60.3391 14.1639 63.5967 19.6018 69.2532 25.9393Z" fill="#DFA94E"/>
<path d="M44.9878 31.9966C42.2662 28.3629 43.0177 23.201 46.6528 20.4703C50.2864 17.7487 55.4604 18.4832 58.1834 22.1076C60.905 25.7412 60.1535 30.9032 56.5184 33.6339C52.8834 36.3647 47.7093 35.6302 44.9878 31.9966ZM57.3463 22.7402C54.9676 19.5671 50.4585 18.9285 47.2762 21.3059C44.1031 23.6847 43.4538 28.2015 45.8234 31.3731C48.2022 34.5463 52.7112 35.1848 55.8936 32.8075C59.0759 30.4302 59.7159 25.9119 57.3463 22.7402Z" fill="#DFA94E"/>
<path d="M27.7398 48.6576L26.4962 49.4964L21.7319 42.433L23.1844 41.4533L26.2913 46.0594L26.7957 39.0174L28.0392 38.1786L32.8036 45.242L31.371 46.2083L28.2574 41.5922L27.7398 48.6576ZM34.1489 44.3346L30.7937 39.3604L34.2259 37.0453L35.0312 38.2391L32.9619 39.6349L35.5118 43.4153L34.1489 44.3346ZM41.1695 42.6243L39.8066 43.5436L35.049 36.4902L36.4119 35.5708L36.7877 36.128C36.7929 35.8639 36.8801 35.5783 37.0493 35.2712C37.2185 34.9641 37.4623 34.7031 37.7806 34.4884C38.4372 34.0455 39.1633 33.9273 39.9587 34.1338C40.7542 34.3403 41.3913 34.7984 41.8699 35.508C42.3486 36.2177 42.5347 36.98 42.4281 37.7949C42.3216 38.6097 41.94 39.2386 41.2834 39.6815C40.9651 39.8962 40.6318 40.0245 40.2837 40.0663C39.9356 40.1082 39.6381 40.082 39.3913 39.988L41.1695 42.6243ZM38.9759 38.8786C39.3781 38.974 39.7681 38.8943 40.1462 38.6393C40.5242 38.3843 40.741 38.0547 40.7965 37.6506C40.8586 37.242 40.7555 36.8387 40.4871 36.4408C40.2187 36.0428 39.8834 35.7961 39.4813 35.7007C39.0858 35.6008 38.699 35.6783 38.321 35.9333C37.9429 36.1883 37.7228 36.5201 37.6607 36.9287C37.6052 37.3328 37.7117 37.7338 37.9801 38.1318C38.2485 38.5297 38.5804 38.7786 38.9759 38.8786ZM46.6376 36.0701C45.981 36.513 45.2549 36.6312 44.4595 36.4247C43.664 36.2182 43.0269 35.7601 42.5483 35.0505C42.0696 34.3408 41.8835 33.5786 41.9901 32.7637C42.0966 31.9488 42.4782 31.3199 43.1348 30.877C43.4531 30.6623 43.783 30.5362 44.1245 30.4989C44.466 30.4615 44.7635 30.4877 45.0169 30.5773L44.6412 30.0202L46.0041 29.1008L49.3593 34.0751L47.9963 34.9944L47.6205 34.4373C47.6087 34.7058 47.5215 34.9914 47.3589 35.294C47.1964 35.5967 46.9559 35.8554 46.6376 36.0701ZM44.917 34.8713C45.3192 34.9667 45.7092 34.8869 46.0873 34.6319C46.4653 34.377 46.6821 34.0474 46.7376 33.6433C46.7997 33.2347 46.6966 32.8314 46.4282 32.4335C46.1598 32.0355 45.8245 31.7888 45.4224 31.6934C45.0269 31.5934 44.6401 31.671 44.2621 31.926C43.884 32.181 43.6639 32.5128 43.6018 32.9214C43.5463 33.3255 43.6528 33.7265 43.9212 34.1245C44.1896 34.5224 44.5215 34.7713 44.917 34.8713ZM51.5796 32.5774L49.0297 28.797L47.6568 29.723L46.8516 28.5292L51.0598 25.6907L51.865 26.8846L50.3926 27.8777L52.9426 31.6581L51.5796 32.5774ZM55.2505 30.1014L51.8953 25.1272L53.2582 24.2079L54.2581 25.6902L55.1932 25.0594C55.7968 24.6523 56.3719 24.525 56.9185 24.6773C57.4673 24.8186 57.8894 25.1081 58.1846 25.5458C58.4844 25.9902 58.6036 26.5032 58.5424 27.0849C58.4834 27.6554 58.1521 28.1442 57.5485 28.5513L55.2505 30.1014ZM55.0432 26.8542L55.8283 28.0181L56.6043 27.4947C57.0752 27.1771 57.1764 26.8193 56.908 26.4214C56.653 26.0433 56.2901 26.0131 55.8192 26.3308L55.0432 26.8542Z" fill="#FBFBFB"/>
</g>
<defs>
<clipPath id="clip0">
<rect width="65.3156" height="64" fill="white" transform="translate(10.4081 0.285095) rotate(9)"/>
</clipPath>
</defs>
</svg>
