<svg width="20" height="20" viewBox="0 0 20 20" fill="none" xmlns="http://www.w3.org/2000/svg">
<path d="M15.8334 9.58342V10.4167C15.8334 10.6469 15.6469 10.8334 15.4167 10.8334H10.8334V15.4167C10.8334 15.6469 10.6469 15.8334 10.4167 15.8334H9.58342C9.3533 15.8334 9.16675 15.6469 9.16675 15.4167V10.8334H4.58341C4.3533 10.8334 4.16675 10.6469 4.16675 10.4167V9.58342C4.16675 9.3533 4.3533 9.16675 4.58341 9.16675H9.16675V4.58341C9.16675 4.3533 9.3533 4.16675 9.58342 4.16675H10.4167C10.6469 4.16675 10.8334 4.3533 10.8334 4.58341V9.16675H15.4167C15.6469 9.16675 15.8334 9.3533 15.8334 9.58342Z" fill="#45B1F3"/>
</svg>
