<svg width="104" height="92" viewBox="0 0 104 92" fill="none" xmlns="http://www.w3.org/2000/svg">
<path d="M-107.994 2.38518C-107.994 3.70248 -109.058 4.77036 -110.372 4.77036C-111.685 4.77036 -112.75 3.70248 -112.75 2.38518C-112.75 1.06788 -111.685 0 -110.372 0C-109.058 0 -107.994 1.06788 -107.994 2.38518Z" fill="#E47450"/>
<path d="M-81.4948 2.38518C-81.4948 3.70248 -82.5595 4.77036 -83.8729 4.77036C-85.1863 4.77036 -86.251 3.70248 -86.251 2.38518C-86.251 1.06788 -85.1863 0 -83.8729 0C-82.5595 0 -81.4948 1.06788 -81.4948 2.38518Z" fill="#E47450"/>
<path d="M-54.9959 2.38518C-54.9959 3.70248 -56.0606 4.77036 -57.374 4.77036C-58.6874 4.77036 -59.7521 3.70248 -59.7521 2.38518C-59.7521 1.06788 -58.6874 0 -57.374 0C-56.0606 0 -54.9959 1.06788 -54.9959 2.38518Z" fill="#E47450"/>
<path d="M-28.497 2.38518C-28.497 3.70248 -29.5617 4.77036 -30.8751 4.77036C-32.1885 4.77036 -33.2532 3.70248 -33.2532 2.38518C-33.2532 1.06788 -32.1885 0 -30.8751 0C-29.5617 0 -28.497 1.06788 -28.497 2.38518Z" fill="#E47450"/>
<path d="M-1.99684 2.38518C-1.99684 3.70248 -3.06157 4.77036 -4.37497 4.77036C-5.68838 4.77036 -6.75311 3.70248 -6.75311 2.38518C-6.75311 1.06788 -5.68838 0 -4.37497 0C-3.06157 0 -1.99684 1.06788 -1.99684 2.38518Z" fill="#E47450"/>
<path d="M24.5021 2.38518C24.5021 3.70248 23.4373 4.77036 22.1239 4.77036C20.8105 4.77036 19.7458 3.70248 19.7458 2.38518C19.7458 1.06788 20.8105 0 22.1239 0C23.4373 0 24.5021 1.06788 24.5021 2.38518Z" fill="#E47450"/>
<path d="M51.001 2.38518C51.001 3.70248 49.9362 4.77036 48.6228 4.77036C47.3094 4.77036 46.2447 3.70248 46.2447 2.38518C46.2447 1.06788 47.3094 0 48.6228 0C49.9362 0 51.001 1.06788 51.001 2.38518Z" fill="#E47450"/>
<path d="M77.4999 2.38518C77.4999 3.70248 76.4351 4.77036 75.1217 4.77036C73.8083 4.77036 72.7436 3.70248 72.7436 2.38518C72.7436 1.06788 73.8083 0 75.1217 0C76.4351 0 77.4999 1.06788 77.4999 2.38518Z" fill="#E47450"/>
<path d="M104 2.38518C104 3.70248 102.935 4.77036 101.622 4.77036C100.308 4.77036 99.2437 3.70248 99.2437 2.38518C99.2437 1.06788 100.308 0 101.622 0C102.935 0 104 1.06788 104 2.38518Z" fill="#E47450"/>
<path d="M-107.994 46C-107.994 47.3173 -109.058 48.3852 -110.372 48.3852C-111.685 48.3852 -112.75 47.3173 -112.75 46C-112.75 44.6827 -111.685 43.6148 -110.372 43.6148C-109.058 43.6148 -107.994 44.6827 -107.994 46Z" fill="#E47450"/>
<path d="M-81.4948 46C-81.4948 47.3173 -82.5595 48.3852 -83.8729 48.3852C-85.1863 48.3852 -86.251 47.3173 -86.251 46C-86.251 44.6827 -85.1863 43.6148 -83.8729 43.6148C-82.5595 43.6148 -81.4948 44.6827 -81.4948 46Z" fill="#E47450"/>
<path d="M-54.9959 46C-54.9959 47.3173 -56.0606 48.3852 -57.374 48.3852C-58.6874 48.3852 -59.7521 47.3173 -59.7521 46C-59.7521 44.6827 -58.6874 43.6148 -57.374 43.6148C-56.0606 43.6148 -54.9959 44.6827 -54.9959 46Z" fill="#E47450"/>
<path d="M-28.497 46C-28.497 47.3173 -29.5617 48.3852 -30.8751 48.3852C-32.1885 48.3852 -33.2532 47.3173 -33.2532 46C-33.2532 44.6827 -32.1885 43.6148 -30.8751 43.6148C-29.5617 43.6148 -28.497 44.6827 -28.497 46Z" fill="#E47450"/>
<path d="M-1.99684 46C-1.99684 47.3173 -3.06157 48.3852 -4.37497 48.3852C-5.68838 48.3852 -6.75311 47.3173 -6.75311 46C-6.75311 44.6827 -5.68838 43.6148 -4.37497 43.6148C-3.06157 43.6148 -1.99684 44.6827 -1.99684 46Z" fill="#E47450"/>
<path d="M24.5021 46C24.5021 47.3173 23.4373 48.3852 22.1239 48.3852C20.8105 48.3852 19.7458 47.3173 19.7458 46C19.7458 44.6827 20.8105 43.6148 22.1239 43.6148C23.4373 43.6148 24.5021 44.6827 24.5021 46Z" fill="#E47450"/>
<path d="M51.001 46C51.001 47.3173 49.9362 48.3852 48.6228 48.3852C47.3094 48.3852 46.2447 47.3173 46.2447 46C46.2447 44.6827 47.3094 43.6148 48.6228 43.6148C49.9362 43.6148 51.001 44.6827 51.001 46Z" fill="#E47450"/>
<path d="M77.4999 46C77.4999 47.3173 76.4351 48.3852 75.1217 48.3852C73.8083 48.3852 72.7436 47.3173 72.7436 46C72.7436 44.6827 73.8083 43.6148 75.1217 43.6148C76.4351 43.6148 77.4999 44.6827 77.4999 46Z" fill="#E47450"/>
<path d="M104 46C104 47.3173 102.935 48.3852 101.622 48.3852C100.308 48.3852 99.2437 47.3173 99.2437 46C99.2437 44.6827 100.308 43.6148 101.622 43.6148C102.935 43.6148 104 44.6827 104 46Z" fill="#E47450"/>
<path d="M-107.994 89.6148C-107.994 90.9321 -109.058 92 -110.372 92C-111.685 92 -112.75 90.9321 -112.75 89.6148C-112.75 88.2975 -111.685 87.2296 -110.372 87.2296C-109.058 87.2296 -107.994 88.2975 -107.994 89.6148Z" fill="#E47450"/>
<path d="M-81.4948 89.6148C-81.4948 90.9321 -82.5595 92 -83.8729 92C-85.1863 92 -86.251 90.9321 -86.251 89.6148C-86.251 88.2975 -85.1863 87.2296 -83.8729 87.2296C-82.5595 87.2296 -81.4948 88.2975 -81.4948 89.6148Z" fill="#E47450"/>
<path d="M-54.9959 89.6148C-54.9959 90.9321 -56.0606 92 -57.374 92C-58.6874 92 -59.7521 90.9321 -59.7521 89.6148C-59.7521 88.2975 -58.6874 87.2296 -57.374 87.2296C-56.0606 87.2296 -54.9959 88.2975 -54.9959 89.6148Z" fill="#E47450"/>
<path d="M-28.497 89.6148C-28.497 90.9321 -29.5617 92 -30.8751 92C-32.1885 92 -33.2532 90.9321 -33.2532 89.6148C-33.2532 88.2975 -32.1885 87.2296 -30.8751 87.2296C-29.5617 87.2296 -28.497 88.2975 -28.497 89.6148Z" fill="#E47450"/>
<path d="M-1.99684 89.6148C-1.99684 90.9321 -3.06157 92 -4.37497 92C-5.68838 92 -6.75311 90.9321 -6.75311 89.6148C-6.75311 88.2975 -5.68838 87.2296 -4.37497 87.2296C-3.06157 87.2296 -1.99684 88.2975 -1.99684 89.6148Z" fill="#E47450"/>
<path d="M24.5021 89.6148C24.5021 90.9321 23.4373 92 22.1239 92C20.8105 92 19.7458 90.9321 19.7458 89.6148C19.7458 88.2975 20.8105 87.2296 22.1239 87.2296C23.4373 87.2296 24.5021 88.2975 24.5021 89.6148Z" fill="#E47450"/>
<path d="M51.001 89.6148C51.001 90.9321 49.9362 92 48.6228 92C47.3094 92 46.2447 90.9321 46.2447 89.6148C46.2447 88.2975 47.3094 87.2296 48.6228 87.2296C49.9362 87.2296 51.001 88.2975 51.001 89.6148Z" fill="#E47450"/>
<path d="M77.4999 89.6148C77.4999 90.9321 76.4351 92 75.1217 92C73.8083 92 72.7436 90.9321 72.7436 89.6148C72.7436 88.2975 73.8083 87.2296 75.1217 87.2296C76.4351 87.2296 77.4999 88.2975 77.4999 89.6148Z" fill="#E47450"/>
<path d="M104 89.6148C104 90.9321 102.935 92 101.622 92C100.308 92 99.2437 90.9321 99.2437 89.6148C99.2437 88.2975 100.308 87.2296 101.622 87.2296C102.935 87.2296 104 88.2975 104 89.6148Z" fill="#E47450"/>
<path d="M-121.244 24.1924C-121.244 25.5097 -122.308 26.5776 -123.622 26.5776C-124.935 26.5776 -126 25.5097 -126 24.1924C-126 22.8751 -124.935 21.8073 -123.622 21.8073C-122.308 21.8073 -121.244 22.8751 -121.244 24.1924Z" fill="#E47450"/>
<path d="M-94.7448 24.1924C-94.7448 25.5097 -95.8096 26.5776 -97.123 26.5776C-98.4364 26.5776 -99.5011 25.5097 -99.5011 24.1924C-99.5011 22.8751 -98.4364 21.8073 -97.123 21.8073C-95.8096 21.8073 -94.7448 22.8751 -94.7448 24.1924Z" fill="#E47450"/>
<path d="M-68.2459 24.1924C-68.2459 25.5097 -69.3107 26.5776 -70.6241 26.5776C-71.9375 26.5776 -73.0022 25.5097 -73.0022 24.1924C-73.0022 22.8751 -71.9375 21.8073 -70.6241 21.8073C-69.3107 21.8073 -68.2459 22.8751 -68.2459 24.1924Z" fill="#E47450"/>
<path d="M-41.7458 24.1924C-41.7458 25.5097 -42.8105 26.5776 -44.1239 26.5776C-45.4373 26.5776 -46.5021 25.5097 -46.5021 24.1924C-46.5021 22.8751 -45.4373 21.8073 -44.1239 21.8073C-42.8105 21.8073 -41.7458 22.8751 -41.7458 24.1924Z" fill="#E47450"/>
<path d="M-15.2469 24.1924C-15.2469 25.5097 -16.3116 26.5776 -17.625 26.5776C-18.9384 26.5776 -20.0032 25.5097 -20.0032 24.1924C-20.0032 22.8751 -18.9384 21.8073 -17.625 21.8073C-16.3116 21.8073 -15.2469 22.8751 -15.2469 24.1924Z" fill="#E47450"/>
<path d="M11.252 24.1924C11.252 25.5097 10.1873 26.5776 8.87386 26.5776C7.56046 26.5776 6.49573 25.5097 6.49573 24.1924C6.49573 22.8751 7.56046 21.8073 8.87386 21.8073C10.1873 21.8073 11.252 22.8751 11.252 24.1924Z" fill="#E47450"/>
<path d="M37.7509 24.1924C37.7509 25.5097 36.6862 26.5776 35.3728 26.5776C34.0593 26.5776 32.9946 25.5097 32.9946 24.1924C32.9946 22.8751 34.0593 21.8073 35.3728 21.8073C36.6862 21.8073 37.7509 22.8751 37.7509 24.1924Z" fill="#E47450"/>
<path d="M64.251 24.1924C64.251 25.5097 63.1863 26.5776 61.8729 26.5776C60.5595 26.5776 59.4948 25.5097 59.4948 24.1924C59.4948 22.8751 60.5595 21.8073 61.8729 21.8073C63.1863 21.8073 64.251 22.8751 64.251 24.1924Z" fill="#E47450"/>
<path d="M90.7499 24.1924C90.7499 25.5097 89.6852 26.5776 88.3718 26.5776C87.0584 26.5776 85.9937 25.5097 85.9937 24.1924C85.9937 22.8751 87.0584 21.8073 88.3718 21.8073C89.6852 21.8073 90.7499 22.8751 90.7499 24.1924Z" fill="#E47450"/>
<path d="M-121.244 67.8073C-121.244 69.1246 -122.308 70.1924 -123.622 70.1924C-124.935 70.1924 -126 69.1246 -126 67.8073C-126 66.49 -124.935 65.4221 -123.622 65.4221C-122.308 65.4221 -121.244 66.49 -121.244 67.8073Z" fill="#E47450"/>
<path d="M-94.7448 67.8073C-94.7448 69.1246 -95.8096 70.1924 -97.123 70.1924C-98.4364 70.1924 -99.5011 69.1246 -99.5011 67.8073C-99.5011 66.49 -98.4364 65.4221 -97.123 65.4221C-95.8096 65.4221 -94.7448 66.49 -94.7448 67.8073Z" fill="#E47450"/>
<path d="M-68.2459 67.8073C-68.2459 69.1246 -69.3107 70.1924 -70.6241 70.1924C-71.9375 70.1924 -73.0022 69.1246 -73.0022 67.8073C-73.0022 66.49 -71.9375 65.4221 -70.6241 65.4221C-69.3107 65.4221 -68.2459 66.49 -68.2459 67.8073Z" fill="#E47450"/>
<path d="M-41.7458 67.8073C-41.7458 69.1246 -42.8105 70.1924 -44.1239 70.1924C-45.4373 70.1924 -46.5021 69.1246 -46.5021 67.8073C-46.5021 66.49 -45.4373 65.4221 -44.1239 65.4221C-42.8105 65.4221 -41.7458 66.49 -41.7458 67.8073Z" fill="#E47450"/>
<path d="M-15.2469 67.8073C-15.2469 69.1246 -16.3116 70.1924 -17.625 70.1924C-18.9384 70.1924 -20.0032 69.1246 -20.0032 67.8073C-20.0032 66.49 -18.9384 65.4221 -17.625 65.4221C-16.3116 65.4221 -15.2469 66.49 -15.2469 67.8073Z" fill="#E47450"/>
<path d="M11.252 67.8073C11.252 69.1246 10.1873 70.1924 8.87386 70.1924C7.56046 70.1924 6.49573 69.1246 6.49573 67.8073C6.49573 66.49 7.56046 65.4221 8.87386 65.4221C10.1873 65.4221 11.252 66.49 11.252 67.8073Z" fill="#E47450"/>
<path d="M37.7509 67.8073C37.7509 69.1246 36.6862 70.1924 35.3728 70.1924C34.0593 70.1924 32.9946 69.1246 32.9946 67.8073C32.9946 66.49 34.0593 65.4221 35.3728 65.4221C36.6862 65.4221 37.7509 66.49 37.7509 67.8073Z" fill="#E47450"/>
<path d="M64.251 67.8073C64.251 69.1246 63.1863 70.1924 61.8729 70.1924C60.5595 70.1924 59.4948 69.1246 59.4948 67.8073C59.4948 66.49 60.5595 65.4221 61.8729 65.4221C63.1863 65.4221 64.251 66.49 64.251 67.8073Z" fill="#E47450"/>
<path d="M90.7499 67.8073C90.7499 69.1246 89.6852 70.1924 88.3718 70.1924C87.0584 70.1924 85.9937 69.1246 85.9937 67.8073C85.9937 66.49 87.0584 65.4221 88.3718 65.4221C89.6852 65.4221 90.7499 66.49 90.7499 67.8073Z" fill="#E47450"/>
</svg>
