<svg width="64" height="64" viewBox="0 0 64 64" fill="none" xmlns="http://www.w3.org/2000/svg">
<circle cx="32" cy="32" r="31.5" stroke="#45B1F3"/>
<path d="M41.5 32C41.5 36.9706 37.4705 41 32.5 41C30.6524 41.0061 28.8488 40.4363 27.34 39.37C27.2194 39.2831 27.1427 39.148 27.13 39C27.118 38.8559 27.1691 38.7136 27.27 38.61L27.99 37.88C28.159 37.7127 28.4224 37.6876 28.62 37.82C29.7662 38.5925 31.1177 39.0036 32.5 39C36.366 39 39.5 35.866 39.5 32C39.5 28.134 36.366 25 32.5 25C28.634 25 25.5 28.134 25.5 32H27.86C27.9956 31.998 28.1259 32.0523 28.22 32.15L28.42 32.35C28.5146 32.4439 28.5679 32.5717 28.5679 32.705C28.5679 32.8383 28.5146 32.9661 28.42 33.06L24.89 36.6C24.6922 36.7918 24.3778 36.7918 24.18 36.6L20.65 33.06C20.5553 32.9661 20.5021 32.8383 20.5021 32.705C20.5021 32.5717 20.5553 32.4439 20.65 32.35L20.85 32.15C20.944 32.0523 21.0744 31.998 21.21 32H23.5C23.5 27.0294 27.5294 23 32.5 23C37.4705 23 41.5 27.0294 41.5 32Z" fill="#45B1F3"/>
</svg>
