<svg width="64" height="64" viewBox="0 0 64 64" fill="none" xmlns="http://www.w3.org/2000/svg">
<circle cx="32" cy="32" r="32" fill="#63CFFF"/>
<path d="M41.5001 32C41.5001 36.9706 37.4707 41 32.5001 41C30.6525 41.0061 28.8489 40.4363 27.3401 39.37C27.2195 39.2831 27.1429 39.148 27.1301 39C27.1182 38.8559 27.1692 38.7136 27.2701 38.61L27.9901 37.88C28.1591 37.7127 28.4225 37.6876 28.6201 37.82C29.7663 38.5925 31.1179 39.0036 32.5001 39C36.3661 39 39.5001 35.866 39.5001 32C39.5001 28.134 36.3661 25 32.5001 25C28.6341 25 25.5001 28.134 25.5001 32H27.8601C27.9957 31.998 28.126 32.0523 28.2201 32.15L28.4201 32.35C28.5148 32.4439 28.568 32.5717 28.568 32.705C28.568 32.8383 28.5148 32.9661 28.4201 33.06L24.8901 36.6C24.6923 36.7918 24.3779 36.7918 24.1801 36.6L20.6501 33.06C20.5554 32.9661 20.5022 32.8383 20.5022 32.705C20.5022 32.5717 20.5554 32.4439 20.6501 32.35L20.8501 32.15C20.9442 32.0523 21.0745 31.998 21.2101 32H23.5001C23.5001 27.0294 27.5295 23 32.5001 23C37.4707 23 41.5001 27.0294 41.5001 32Z" fill="#FBFBFB"/>
</svg>
