<svg width="14" height="15" viewBox="0 0 14 15" fill="none" xmlns="http://www.w3.org/2000/svg">
<path d="M6.04894 3.42705C6.3483 2.50574 7.6517 2.50574 7.95106 3.42705L8.34708 4.6459C8.48096 5.05792 8.86491 5.33688 9.29814 5.33688H10.5797C11.5484 5.33688 11.9512 6.5765 11.1675 7.1459L10.1307 7.89919C9.7802 8.15383 9.63354 8.6052 9.76741 9.01722L10.1634 10.2361C10.4628 11.1574 9.40831 11.9235 8.6246 11.3541L7.58778 10.6008C7.2373 10.3462 6.7627 10.3462 6.41221 10.6008L5.3754 11.3541C4.59169 11.9235 3.53721 11.1574 3.83656 10.2361L4.23259 9.01722C4.36646 8.6052 4.2198 8.15383 3.86932 7.89919L2.8325 7.1459C2.04879 6.5765 2.45156 5.33688 3.42029 5.33688H4.70186C5.13509 5.33688 5.51904 5.05792 5.65292 4.6459L6.04894 3.42705Z" fill="#E54622"/>
<path d="M6.04894 3.42705C6.3483 2.50574 7.6517 2.50574 7.95106 3.42705L8.34708 4.6459C8.48096 5.05792 8.86491 5.33688 9.29814 5.33688H10.5797C11.5484 5.33688 11.9512 6.5765 11.1675 7.1459L10.1307 7.89919C9.7802 8.15383 9.63354 8.6052 9.76741 9.01722L10.1634 10.2361C10.4628 11.1574 9.40831 11.9235 8.6246 11.3541L7.58778 10.6008C7.2373 10.3462 6.7627 10.3462 6.41221 10.6008L5.3754 11.3541C4.59169 11.9235 3.53721 11.1574 3.83656 10.2361L4.23259 9.01722C4.36646 8.6052 4.2198 8.15383 3.86932 7.89919L2.8325 7.1459C2.04879 6.5765 2.45156 5.33688 3.42029 5.33688H4.70186C5.13509 5.33688 5.51904 5.05792 5.65292 4.6459L6.04894 3.42705Z" fill="url(#paint0_linear)"/>
<defs>
<linearGradient id="paint0_linear" x1="-8.4" y1="-1.775" x2="17.5" y2="17.825" gradientUnits="userSpaceOnUse">
<stop stop-color="#FFCD77"/>
<stop offset="1" stop-color="#CC9536"/>
</linearGradient>
</defs>
</svg>
